<svg xmlns="http://www.w3.org/2000/svg" viewBox="0 0 658.79 156.6"><defs><style>.a,.b{fill:#231815;}.b,.d,.e,.f,.g,.h{fill-rule:evenodd;}.c{fill:none;stroke:#231815;stroke-width:0.77px;}.d{fill:#e9c518;}.e{fill:#5eaf50;}.f{fill:#da4f22;}.g{fill:#2c6cae;}.h{fill:#a19d98;}</style></defs><path class="a" d="M650.82,56.66v1.27c-.28,2.88-3.05,3.66-6,3.44-.67.16-.78.72-1.44.6-.89,1.06-1,2.94-1.33,4.6.33.17.44.5.61.83-.33,4.49.61,7.76.5,12.08-.11.5.33.45.33.84-1.05,1.16-1.55,2.49-1.28,5.31.06.61.39,1.28.45,1.78,0,.16-.28.44-.22.61.05.33.38.55.44.83s-.17.22-.22.5.27.83.22,1.05c0,.44-.22,1-.22,1.27,0,.61.61,1,.61,1.44,0,.67-.39.56-.72,1.17a9.15,9.15,0,0,1-.11,1c-.17.38-.56.77-.61,1-.33,1.44.83,3.27.72,4.6-.17,1.83-2.33,2.66-3.22,3.82.11.33.39.89.11,1.16-2-.22-3.6.39-5.43-.11V105a10.67,10.67,0,0,0-3.21-.61c-2.38-.39-2.94-3-5.54-3.21-1.55-1.39-2.6-3.27-4.76-4.1a7.25,7.25,0,0,0-1.22-2.38v-.45c1.66.39,4.26-.28,5,1.06,1.38-.12,2.66.77,3.88.94.72,0,1.55-.11,2.38,0a6.16,6.16,0,0,0,1.33.22c3.71-.33,3.88-6.65,3.66-10.08,1.66-2.55.88-7.21,1.16-11a3,3,0,0,0,.22-1c0-.78-.44-1.61-.44-2.39,0-1.77.39-3.71.44-5.54a6.59,6.59,0,0,1-.55-2.49c-1.22-1.72-2.33-.39-4.16,0-1.38.28-3.1.28-4.6.44-.94.17-1.83.72-2.6.89s-1.39-.11-1.94,0-1.22.88-1.88.55c-.45.06-.34.61-.72.72s-.67-.11-1.06-.11c0,0-.11.06-.16.06V63.14c.83-.39,1-.89,2.16-1.17.61-.16,1.05-1,1.82-1.21a35,35,0,0,0,6.82-2.5c.78-.33,1.33-1.22,2.05-1.49s1.66-.06,2-1c0-.66-.34-.88-.45-1.33.33-.61.94-.94,1.17-1.66,0-.77-.67-.88-.72-1.66s.6-1.22.49-2c-.22-1.21-2-1.71-2.38-2.82-.16-.55-.55-1.55-.61-1.94-.27-2.44,1.72-3.32,2-5.65,1.05-.78,2.77-2,4.6-1.55.72.16,1,1.22,1.88,1a4,4,0,0,0,2,2.27c.45.94-.27,1.61-.38,2.38-.17,1.28,1.1,2.61,0,3.77.72.83.27,2.83,1.44,3.22-.17.88.33,1.21.61,1.77a5,5,0,0,1,1.77.83,4.82,4.82,0,0,1,.11,1c.67.78,1.66.45,2.49.72,1.11.39,1.72,1.78,2.61,2.39M619.24,91.51c1.27-1.66,2.71-3.22,4.1-4.77-.56-1.71.77-2,.55-3.71a2.11,2.11,0,0,0-1.39-.55,4.21,4.21,0,0,0-3.26-2.16Zm0-61.06V22.63c1.94-.16,3.65-1.49,5.76-1.16.39.06.77.44,1.27.56.22,0,.56-.06.72,0a4.13,4.13,0,0,0,1.89.72,4.48,4.48,0,0,1,3.43,2.49c-1.22,1-1.66,2.71-3.32,3.32-.89-.27-1.28.06-2.11.11a2.26,2.26,0,0,0-.5.95c-.55.05-.61-.39-1.16-.34a12.88,12.88,0,0,1-6,1.17m0,64.22a2.81,2.81,0,0,0-.56-.61,1,1,0,0,0,.56.16Zm0-28.26a7.08,7.08,0,0,0-1.28,1c-.39,0-.5.23-.94.12-1.27,1.44-3.71,1.66-4.82,3.21-2.66.22-3.16,2.6-6,2.6.22-1.27,1.55-1.44,2.21-2.27-.38-.66.12-1.33.39-1.77,2.16.33,2.33-1.33,3.77-1.77v-1A16.4,16.4,0,0,0,615.86,65c.33-.22.55-.77.94-1a13.26,13.26,0,0,1,2.38-.83h.06Zm0-43.78h-.56a3.68,3.68,0,0,1-1.49,1.28H616c-.45,1.72-2.39,1.27-4.16,1.66-.55.17-.83.89-1.38.5a7.67,7.67,0,0,1-3.94,1.66A5.8,5.8,0,0,1,602.34,29c-.5.88-1.55.77-2.61,1.1-.33.06-.61.39-.94.45a13.83,13.83,0,0,1-1.44,0,13.55,13.55,0,0,0-2.72,1.05c-.88.33-1.82.22-2.32.61-2.39-.11-3.55,1-5.71,1.05-.39.11-.39.61-.83.61-1.83.5-4,.45-5.93.94-.33.12-.5.34-.83.39-1.22.11-2.44-.5-3.55-.27-.44.11-.72.49-1.05.6a2.92,2.92,0,0,1-.72.06v1c1.55.22,2.71,1.83,4.27,2.11.61.11,1.27-.17,1.88-.11,2,.11,3.27,1.33,4.88,1.49,2.49.34,4.87-1,7-1.16,1.22-.66,2.1-1.94,4-1.55.16.61.77,1.11.72,1.77,0,.45-.5.67-.72,1.22-.11.28,0,.61-.11.83-.61,1.28-2.16,2.27-2.83,3.55-.22.33-.06.77-.22,1.16-.39.89-1.28,1.5-1.66,2.27-.11.17,0,.61,0,.83-.34.84-1.5,1.17-1.06,2.5-.27.44-1.1.61-1.44,1-.16.22-.11.72-.22.94-.28.45-.89.61-1.11.94s-.11,1-.33,1.45-.72.55-.94.94-.22,1-.5,1.55c-.44.77-1.22,1.22-1.16,2.33a16.17,16.17,0,0,0-3.33,3.43,11.79,11.79,0,0,0-.83,4c.06,2,2.44,1.05,4.16.83,1-.56,1.66-1.39,3.1-1.55.61-.56.61-1.83,1.61-2,.55-2.27,2.55-3,4-4.27-.33-1.33,1.16-1.93,1.77-3.1.28-.44.12-1.22.5-1.77s.94-.5,1.39-.94c.33-.28.5-.89.83-1.28s.77-.39,1-.61.22-1,.55-1.44c.61-.77,1.5-1,1.66-1.66s-.11-1.5,0-2.11c.23-1.1,1.22-1.77,1.06-2.82-.06-.5-.56-1-.67-1.55-.33-1.39-.11-3-.61-4.38-1.11-.83-2.44-1.33-2.49-3.21.88-1.28,3.49-.84,4.49-2a3.32,3.32,0,0,0,1.33-.28c.38-.16.49-.66.94-.83a9.86,9.86,0,0,0,4.6-1.16,20.53,20.53,0,0,1,2.49-.33c1.22-.45,1.22-1.44,2.6-1.44,1.56,0,3.27.11,4.94.11Zm0,57.69a15.49,15.49,0,0,0-7.76.72c-1.16.44-2.49.94-2.72,1.88.5.28.67.94,1.67,1.33,2.32.89,7-.67,5.87,2.71a1.5,1.5,0,0,1-1,.34,7.86,7.86,0,0,1-1.39,2.27c-1.05,2.33-3,3.71-3.82,6.26,1,.89,1.83-.33,2.38-.94,1.94-.45,3.05-2.38,5.54-1.55.39-.61.83-1.22,1.28-1.83ZM573.69,68.4V59.65a2,2,0,0,1,.44.55c.06.83.39,2.22-.22,2.72.17.27.67.22.72.55a16.68,16.68,0,0,1-.94,4.93m43.72-57c.05,2.93-5.82,1.88-8.65,2.21-.61.5-1.22.22-2.16.28-1.49.06-3.21,1.11-4.38,1-1,0-1.82-.88-2.71-1.16s-1.94-.17-2.6-.5c-1.11-.55-1.11-2.27-2.61-2.49.61-1-1.38-1.11-.83-2.5,3-.61,6.82.23,8.75-1.55,2,.45,4.38-.05,6.77-.22s6.09.55,7,2.05c.16.22.22.72.49,1.16.39.72.95,1.11.95,1.67M601,77.49c.67.89-.33,1.61-.5,2.49-.05.34.17.72.11,1.06a19.76,19.76,0,0,1-.72,2c-.16,1,.22,2.27-.44,3.21.5.28.17,1.06.33,1.78.11.5.61,1,.61,1.55a7.17,7.17,0,0,1-.39,1.16c-.33,1.66.11,4.71-2.43,4.66-1.17-.06-1.45-1-2.5-1.22,0-1.39-2-2.94-1.94-5,.06-.5.45-.94.5-1.5.06-.77-.16-1.6-.11-2.38.06-1.49-.39-3-.22-4,0-.45.5-.67.55-1.06.34-1.22-.5-2.27-.55-3.32-.06-.39.17-.66.11-.94-.28-.89-2.05-1.83-.72-2.94-.28-.72-1.55-.89-1.55-1.55s1.33-1.28,2-1.22c1.39.17,2,2.11,2.77,2.6.11,1.83,1.39,2.55,2,3.94v1c1.22.17,1.83-.88,3.1-.33M573.69,35.6v1a3.49,3.49,0,0,0-.72,0c0-.22-.06-.39-.22-.45.11-.49.5-.55.94-.55m0,24V68.4c-.61,2-1.22,3.83-.83,6.1-1.83,1-.33,4.93-1.77,5.82a2.29,2.29,0,0,1-.5,1.55c-.17,1.71.33,2.93-.11,4.15-.17.45-.84.67-1.06,1.17a3.72,3.72,0,0,0,0,2.88c-.83.77-.5,2.05-1.55,2.55.67,1.21-.61,2.16-.72,3.32-1.61.5-2,2.33-3.77,2.6.39-2.16,1.5-2.93,1.67-5.31,1-.56.49-1.61.72-2.61.05-.39.49-.66.66-1.16s.11-.89.28-1.22.55-.72.72-1.17c.28-1.1-.22-2.16.55-2.82a1.24,1.24,0,0,0,1.44-.61c-.27-1.44-.83-2.66-.61-4.16s-.27-2.93,0-4.26c.11-.56.78-1.11.83-1.66a18.21,18.21,0,0,0-.11-2.94c-.11-.78-1-1.61-1.16-2.49a9.1,9.1,0,0,1,.11-1.67c-.05-1.22-.39-2.49-.39-3.43,0-1.66.22-2.66-.83-3.66.56-.83,0-2.11-.44-2.71,1.22-1.5-.06-3.61-1.33-4,.33-.83-.11-2.44.5-3,.11,0,.11.05.11.16,3,2.72,5.93,5.49,7.48,9.7,0,.06,0,.11.11.17" transform="translate(0 0)"/><path class="a" d="M557.18,99.76a7.14,7.14,0,0,1-4.32-.22c-1.17.44-3,.28-3.66-.5-3,.06-5.65-2.05-8.7-2.32-2-.17-3.88.44-4.54-1.5-4.1-1.28-5.66-5.1-8.87-7.31-1.05-1.83-2-3.77-3.27-5.6-.61-.89-1.55-1.5-2.1-2.33-.06-.11-.11-.16-.17-.27V60.09a9.78,9.78,0,0,0,.55-1.66c.28-1.55-.27-3.22.72-4.49,2.61-.5,4.27,1.88,5.66,3.66,1,1.33,2.66,2.88,1.93,5.37-.38,1.44-2.1,3.16-3.15,4.38-1.33,1.49-2.72,2.82-3.6,4a14.24,14.24,0,0,1-.12,2.22c1.5.55,1.89,2.22,2.83,3.44,2.22,2.71,5.87,4,8.2,6.7,3.16.78,4,3.82,7.15,4.65,3.77,5.16,11.58,6.32,15.46,11.36M517.86,48.13l3.69-2.94a5.21,5.21,0,0,1,.78-.45c.88-.44,1.88-.61,2.71-1,.33-.11,2-.54,2.3-.71a20.38,20.38,0,0,0,2.58-1.11c2-.84,3.84-3.05,5.06-4s1.7-.78,2.42-1.5c1.38-.17,2.38-.72,3.6-.39s1.73,1.69,3,2.33c-.12.66.44,1.33.22,2a18.08,18.08,0,0,1-2.55,2.44c-1.39.89-4.27,1.28-6.15,1.72a31.56,31.56,0,0,1-3.16.44c-1,.17-1.53.19-2.52.41a24.31,24.31,0,0,0-2.52.7,18.73,18.73,0,0,1-2,.43c-.39,0-1.3.35-1.58.35a8.22,8.22,0,0,0-2.29.87l-2.86.51Zm3.69-14V17.2c3.44.34,7.65.56,8,3.44.23,1.72-1.27,2.66-2.21,3.71-1,2.22-2.61,4-3.71,6.21a18.51,18.51,0,0,1-2.11,3.54m0,45.61c-.44-.84-.94-2.28-1.94-2.44s-2.77,1.38-3.54,2.1c-1.06.94-2,2.33-2.83,2.94a5.92,5.92,0,0,1-1.11.44c-1.16.89-2.05,2-3.32,2.94A7,7,0,0,1,507,86.91c-.5.28-.72.66-1.61.5-.28,0,.06.66-.33.61-1.94,0-2.5,1.71-3.83,2.43a6.59,6.59,0,0,1-1.21.39c-.95.45-1.39,1.11-2.44,1.33V90.45c1.33-1.38,3.43-2.38,4.38-4.15.33,0,.22.5.49.5a12,12,0,0,1,4.66-4.27c1.11-2.27,3.38-3.16,5.15-5.26.94-1.06,2.55-2.94,2.72-4.16.33-2.16-1.56-4.27-2.55-5.65a16.26,16.26,0,0,0-2.11-2.55,18.09,18.09,0,0,0-4.93-3.43c1.88-.34,3.77.49,5.32,1.27A40.91,40.91,0,0,1,515.34,65c1.06.72,1.61,2,3.33,1.72a10.65,10.65,0,0,0,1.83-4c.27-.89.72-1.77,1-2.66Zm0-62.51V34.1a4.07,4.07,0,0,1-.44.61c-2.05,2.5-3.88,5.21-6.38,7-1.33-.33-1.21-1.55-1.1-3.32a16,16,0,0,1,0-1.72,18.76,18.76,0,0,1,.94-1.66c.83-1.77,1-4.1,1.6-6.37.28-1.11,1.11-2.16,1.39-3.22.11-.44.11-1,.22-1.44.22-.72.72-1.33.89-1.94a12,12,0,0,0-.17-4c.5-.72,1.33-.22,1.89-.89a7.47,7.47,0,0,0,1.16.11m0,28v1.38c-1.11.39-1.88,1.61-3,2.11a14.32,14.32,0,0,1-1.44.22,27.73,27.73,0,0,1-3.43,1c-1.89.27-3.88.16-5.32,1.1-.61-.22-1.61,0-2.16-.27-.34-1.61.88-2.22,1.44-3.27,1.05-.78,1.77.66,2.71.83.61.11,1.22-.39,2.22-.61s2-.22,2.71-.5,1.06-.89,1.56-1.11c.94-.33,1.82.06,3-.11a6.41,6.41,0,0,0,1.77-.77m-24,39.67a1.66,1.66,0,0,0,1.11-1.33,5.88,5.88,0,0,0-1.11-2.66Zm0,7.31c-.22,0-.45.06-.67.06v-.94a2.52,2.52,0,0,1,.67-.84Zm0-11.3v4a3.5,3.5,0,0,1-.67.22V80.31c.22.17.45.28.5.39s.11.06.17.17m-.67-16.29V51.06a5.49,5.49,0,0,1,.39,1.88,28.77,28.77,0,0,1-.33,3.44c-.22,2.21.39,4.76.11,6.81-.06.5-.11,1-.17,1.39m0,27.65a1.14,1.14,0,0,1-.44-.06,2.6,2.6,0,0,1,.44-.88Zm0-41.17V64.58a38.44,38.44,0,0,1-.83,4.49c-1.66.44-2.55-.89-3.82-.95-.45-1.38-2.16-1.6-1.94-3.32,1.05-.44,2.6-1.16,2.82-2.55a20.33,20.33,0,0,0-.11-2.1c.11-3.83.39-8-.38-11.75,1.77-.67,3.49.77,4.26,2.66m0,29.25c-.27-.16-.61-.33-.83-.49-2.1-1.33-2.94.22-5.26,1.22a29.56,29.56,0,0,1-4.32,1.49c-1.83.39-5.21.39-6-1s.17-4.1.11-5.59c-.05-2-.27-3.88-.22-5.88.06-4.32-.11-8.36.33-12.35a2.42,2.42,0,0,1,0-2.44c-.77-.94-.22-2.33-.22-3.66s-.39-2.71-.5-4.15.22-3.16,0-4.44c-.27-1.77-2.05-3.54-.72-5.37,1.22-.67,2.77-.72,4.16-1.22.89-.33,1.55-1.11,2.44-1.33,1.05-.33,2.27-.22,3.1-.61,1-.5,1.44-1.61,2.55-1.83,1.44-.39,4.38.39,4.93-.88.33-.83-1-2.33-1.83-2.83s-2-.72-2.83-1.11c-1.6-.66-2.43-1.16-3.6-.72-.38.17-.83.11-1.33.28-.77.22-1.55.77-2.43,1.11s-1.89.5-2.83.83c-1.61.55-3,1.77-4.43,2.21-.89.28-2.05.45-3.05.72a15.55,15.55,0,0,1-4.43.73c-2.77,0-5.21,1.71-8.2,1.1.05,1.28,1.27,1.61,2.32,1.61a2.87,2.87,0,0,0,.5,1.55A10.82,10.82,0,0,0,469,40.09c2.1.44,3-.22,4.26-.72,1.67.61,1.5,2.55,1.72,4.65a28,28,0,0,1,.5,3.55c.05,2.77-.83,5.59-.72,8.53.11,2.38-.61,4.77-.61,7.09,0,1.11.22,2.22.11,3.22-.05.72-.44,1.38-.5,2s.17,1.16.11,1.71a32.79,32.79,0,0,1-.72,3.77,7.61,7.61,0,0,0,.39,3.33c.06.5,0,1.16.11,1.71.22,1.22,1.05,2.22.83,3.33-.5,2.82-5.37,2-7.81,2.44-.78.11-1.27.55-2,.33-1-2.33.83-5,1.21-8,.28-1.72.11-3.5.39-5.27-.88-1.11-1.11-3.1-2.33-4.65-.38-.5-1.16-.78-1.6-1.22-1.17-1.28-1.94-3.16-3.49-1.94-.28,1.16.55,1.88.5,3-.06.66-.5,1.38-.5,2,0,.49.33.88.38,1.33a10.81,10.81,0,0,1-.6,3.54c-.23.89-.34,1.78-.5,2.61-.39,1.6-1.17,3-1.61,4.65s-.67,2.94-1.22,4.38a32,32,0,0,0-1.38,4.26c1.55,2.39,2.49,5.77,5.54,6.16,2.27.27,3-1.61,4.48-2.33.34-.17.78-.17,1.22-.39s.61-.5,1-.61,1.11,0,1.61-.22c1.55-.56,2.82-1.72,3.88-2,.77-.16,1.49,0,2.1-.22,1.28-.39,2.5-1.27,4-1,2.32-1.33,6-1.33,9.08-2a11.93,11.93,0,0,1,1.72-.61c.45-.06.94.16,1.33.11,1.72-.11,3.1-1.11,5-.83.34-.45,1.17-.56,1.94-.78Z" transform="translate(0 0)"/><path class="a" d="M342.6,83.62c.23,1.39-.77,2.22-.72,3.72-.49.11-.11-.61-.66-.45-.11.72.55.67.55,1.28-.11,3.15-.61,5.43-3.38,6.15-1.71.44-4.6-.45-6.37-.5-.39-.06-.61.11-.88.05-.95-.11-1.78-.5-2.61-.61a14.79,14.79,0,0,0-5.32.72c-.94.28-1.77.23-2.55.45-.44.16-1.11.66-1.6.66-1.39,0-2-2.1-2.55-3.43-.17-.5-.56-.89-.61-1.17a9.13,9.13,0,0,1,.33-4.76c.22-1,.55-1.66.83-2.94.39-2,1.72-3.66,2-5.1.16-.72-.06-1.6.11-2.32s.61-1.66.83-2.44c.27-.94.33-1.83.55-2.77.5-2.22,1.28-3.49,1.61-5.82.22-1.77,1.49-4,1.88-6,.28-1.39.94-4.66-.61-4.77-.77,0-.88.67-1.38,1.11-2.11.83-3.83,2.49-5.54,3.88a32,32,0,0,0-3.88,3.93c-1,1.22-1.55,2.83-3,3.6-1.39,1.89-2.77,3.88-4.33,5.71-.49.61-1.27,1.05-1.71,1.61s-.61,1.16-1.06,1.71c-.66.78-1.38,1.17-1.49,2.44-1.44.83-1.83,2.77-3.27,3.6,0,.45-.33.56-.33.95-1.72,1.27-2.44,3.38-3.83,5s-3.32,2.94-4.15,5.1c-3,1.83-4.6,6.15-8,7.2a3.36,3.36,0,0,1-2.1-.11c-.45-.11-.78-.5-1.28-.61-1.22-.38-1.66-.38-2.32-1.38a24.5,24.5,0,0,0-1.94-6.37c-.34-.67-1-1.33-1.06-1.94a8.67,8.67,0,0,1,.95-2.72c.83-1.11,2.54-1.22,3.6-2a3.57,3.57,0,0,0,3.1-1.55c-.05-1.94.22-3.77.11-5.43a6.39,6.39,0,0,1-.22-.94c.06-.89.78-1.72.33-2.66-.5-.5-1.66-.33-1.83-1.16a7.42,7.42,0,0,1-3.71-.34c-.28-.66-1.11-.72-1.61-1.16-.33-.28-.44-.83-.83-1.27s-.83-.45-1.05-.72c-.5-.61-.66-1.5-1.16-2.11s-1.22-1.16-1.72-1.83c-1.16-1.66-.55-4.15-2.33-5.32-.28-.66-.28-1.22-.5-1.77-.16-.33-.61-.39-.55-1.28,1.11.34,1.38,1.5,2.11,2.22.33.06.94-.11,1.05.11A24.77,24.77,0,0,0,274.23,63c1.11,0,1.88.6,2.83.33.66-.22.49-.72.88-1.22.34-.33.83-.17.94-.61-.05-2.05.89-4,1.17-6,.05-.44-.06-.83,0-1.27s.28-.73.33-1.06a11.22,11.22,0,0,0-.33-2.55c-.11-.77.11-1.66,0-2.32-.17-1.33-.56-2.61-.83-4.27a22,22,0,0,0-1.83-4.88c2-.27,2.49,1,4.38.78A18.87,18.87,0,0,1,285.7,43a15.39,15.39,0,0,1,2.6,3.1c1.61,3.16,1.61,8.26,1,12.19-.05.39.33.39.28.83-.39.72-.17,1.33-.17,2.11-.11,1.66-.77,3.32-.88,4.87-.17,2.28.22,4.6-.72,6.49.49,1.88-.67,3.82-.12,5.37,1.83.55,2-1.38,3.38-1.66,1.72-2,4.1-3.55,6-5.54.67-.61,1.11-1.5,1.83-2,.5-.38,1.17-.5,1.66-.83,1.94-1.38,3-3.82,5.55-4.76V62c2.6-1.71,4.48-4.21,6.64-6.48.73-.72,1.67-1.27,2.33-2.05,2.16-2.1,4.71-3.88,6.93-6.15,2.1.17,2.71-1.16,3.49-2.44,0-1.11-.28-2,.33-2.71-.66-1-.22-2.33-.33-3.49-.28-2.55-1.44-5.1-1.16-7.32.94-.94,2.54-1.22,3.6-2.05a5.57,5.57,0,0,0,3.27-.83c.83,1.11,1.33,4.1,1.71,5.82.17.72-.11,2.1.11,3,.17.56.89.89,1.17,1.39a3.74,3.74,0,0,1,1.77.61c1.33.72,2.66,1.38,3.33,2.66,2.16.11,1.44,3.49.49,4.65a6.43,6.43,0,0,1-2.43,1.72c-1.61.66-3.66.39-4.44,1.77-.44,1.28-.16,3.27-1.16,3.93.22,1.94-1.05,2.44-.83,4.33-.39.44-.5,1-.89,1.38-1.16,7.54-3.93,13.91-5.59,21.22,1.1,1.28,3.27.06,5.2-.22.84-.11,1.72.06,2.55-.11.56-.11,1.06-.55,1.67-.61a24.24,24.24,0,0,1,3.93.33,10.25,10.25,0,0,1,1.16-.11c.95.17,3.44,2.11,3.6,3.38" transform="translate(0 0)"/><path class="b" d="M403.25,27c3.57,2.55,7.91-.16,12.32-2.24,4.42-.58,8.89-4.7,12.73-2a57.19,57.19,0,0,0,9.23-1.38c3.52.13,6.59,1.43,6.51,5.67-.06,3-2,4.07-4.55,4.46s-5.76,1.7-8.33.55c-4.32-.84-8.71,0-13.13,3.65-4.43,1.88-8.89,0-13.35,2.79-.89.32-.8,4.21-.71,5,.09,1.83.18,4.66-.72,5,1.61-2.3,3.35-2.11,5.15-2,1.81-.7,3.7-1,5.61-1.7a7.57,7.57,0,0,1,5.77-1.13,15.07,15.07,0,0,1,5.65,2.66c-.2,2.48-.28,4.77-.35,7.07-.06,1.09-.12,4.52-.28,7.13-.33,4.18-1.11,13.58-3.3,13.4-2.19,3.13-5.8,8.24-11.81,4.6-1-4.58-2.23-3.39-3.38-4.12-1.15-1.6-2.24-1.32-3.06-4.46-1,2-1.16,4.68-1.06,9.61,0,1.64.11,3.18.19,5.73.08,2.27.18,3.32.27,4.53.1.34.18,2.42.25,3.75.06,1.78.1,2.62.1,3.79,0,1.37,0,2.18,0,2.82s-.06,1.12-.12,1.81c-.06,1.88-.16,3.13-.29,3-.13.82-.29.87-.48,2.22a4.76,4.76,0,0,1-1.69,3.07c-.74,0-1.68,1.82-2.86,2.65a21.47,21.47,0,0,0-1.76-4.84,20.13,20.13,0,0,0-1.1-3.28,9.63,9.63,0,0,0-.55-1.93c-.05-.77-.08-1-.1-2.15,0-.84,0-1.64,0-2.41,0,0,0-1.84.08-2.14a18.18,18.18,0,0,1,.16-2.23,19,19,0,0,1,.48-3.83,34.69,34.69,0,0,0,.62-4.23c.21-1.7.44-3.89.64-5.2.21-1.72.41-3.35.58-4.63.5-5.31.73-11.27.23-13.94-4,.07-6.16,5.71-8.46,8.9-2.3,6.77-4.76,8.24-9.43,9.71-.81-3.06-1.31-.7-1.56-4.36-.24,1.25-.23-5.76,0-5.87.2-3.43.6-3.45,1.14-6.62.54-4.43,1.21-3.76,2-6.62.75-4.83,1.57-.74,2.41-7,.84-4.57,1.7-5.32,2.51-3.2,1.24-1.58,2.92-.53,4.71-4.08,1.79-.37,3.67-1.73,5.31-2.36v-4.3a23.19,23.19,0,0,0,12.35-1.18c3.54-1.93,6.54-5.17,9.12-6-4.31-.28-8.69,3.58-13,2.45s-8.66,5-12.85,5.12c-4.18,2.18-8.23,4.14-12,6-4,3.84-8,3.2-11,4.37-3.06.06-5.17-2-5.42-8.66,3.52.63,7.13-1.78,10.74-.72,3.6.15,7.2-2.81,10.69-4.12,3.49-1.89,6.87-4.79,10.05-4.46-.95,1.27-3.18.91-4.29-2.15,2.12.87,2.33-4.2,1.72-7.95-.61-3-2-7.52-3.15-5.64,4.16-2.05,8.64-.37,11.72,1.69,3.08,5.48,4.75,5.16,3.3,11.9m-6.44,27.19c.12-4.62.73-2.94.83-7.28.1-5-.32-5.88-2.26-5.6-1.35,1.34-2.61,5.35-3.73,4.29-1.13.8-2.11,4.63-2.89,3.94-.79,3.82-1.38,2.56-1.73,6.28-.34.25-.44,5.37-.23,4.81,1.49-.23,3.19.36,4.92-3.3,1.72-2.76,3.48-3.22,5.09-3.14M402.54,57c0,2.6.45,6.81,0,9.3,2.41,3.18,4.56-1.77,6.37,1.52,1.81,2.32,3.28-1.29,4.34-2.68,1.05-1.68,1.69-5,1.84-5.51a24.94,24.94,0,0,0-1.1-6.93c-2.33-.19-4.45,1.24-6.36,1.51-1.91.57-3.61,2.59-5.09,2.79" transform="translate(0 0)"/><path class="b" d="M187.77,15.84c.25,2.44,0,2.69-.56,5.34A17.27,17.27,0,0,1,185.13,25c-.77.51-1.52,2.48-2,3.93.38,1.14.86-.12,1.4,1,.55.6,1.17-.26,1.84-.23.66.44,1.38-.06,2.12-.94s1.5-.47,2.27-1.19c.76-.31,1.53-1,2.27-.74a1.62,1.62,0,0,0,2.15-.5,2,2,0,0,1,1.87.62,6.92,6.92,0,0,1,1.47,2.79c-1.06.32-2.37,2.94-3.85,3.12a9.49,9.49,0,0,1-4.79,1.79,41,41,0,0,1-5.09.87c-1.67.18-3.29.28-4.74.38a18.82,18.82,0,0,0,.48-4.33,32.39,32.39,0,0,0-.44-4.85c-.29-.36-.72-3.84-1.29-4.84a22,22,0,0,0-2.09-4.3,6.86,6.86,0,0,0-2.82-3.23,4.39,4.39,0,0,1,2.84-3c1.15-1.52,2.47.22,3.8.5,1.34-.33,2.7.85,3.95,2.1s2.38,1.08,3.26,1.89" transform="translate(0 0)"/><path class="c" d="M187.77,15.84c.25,2.44,0,2.69-.56,5.34A17.27,17.27,0,0,1,185.13,25c-.77.51-1.52,2.48-2,3.93.38,1.14.86-.12,1.4,1,.55.6,1.17-.26,1.84-.23.66.44,1.38-.06,2.12-.94s1.5-.47,2.27-1.19c.76-.31,1.53-1,2.27-.74a1.62,1.62,0,0,0,2.15-.5,2,2,0,0,1,1.87.62,6.92,6.92,0,0,1,1.47,2.79c-1.06.32-2.37,2.94-3.85,3.12a9.49,9.49,0,0,1-4.79,1.79,41,41,0,0,1-5.09.87c-1.67.18-3.29.28-4.74.38a18.82,18.82,0,0,0,.48-4.33,32.39,32.39,0,0,0-.44-4.85c-.29-.36-.72-3.84-1.29-4.84a22,22,0,0,0-2.09-4.3,6.86,6.86,0,0,0-2.82-3.23,4.39,4.39,0,0,1,2.84-3c1.15-1.52,2.47.22,3.8.5,1.34-.33,2.7.85,3.95,2.1S186.89,15,187.77,15.84Z" transform="translate(0 0)"/><path class="b" d="M255.5,42v3.08c-1.26.67-2.56,1.3-3.88,1.9s-2.67,1.17-4,1.73c-1.36,1.45-2.73.95-4.1,1.67-1.37-.25-2.74,2.08-4.09,1.69a4.25,4.25,0,0,0-4,1.79c-1.3-.27-2.56,2-3.78,2,.93.52,1.74,2.87,2.44,3.54a6.61,6.61,0,0,1,1,1.69c.3.77.58,1.91.83,2.72a12.23,12.23,0,0,1,.69,2.68c.2,2.2.39-.43.55,2.42.1,1.47.2,2.7.29,1.81a7.92,7.92,0,0,0,.25,1.89c.07-.78.13,1.64.18,1.6.06-1.44.11,2.78.14,2.28,0,.37.07,1.28.1,2,0,2.29,0-.16,0,2,0,3,0,1.63,0,2.14,0-1.68,0,.74,0,2,0,3-.06.24-.11,2.69-.05.79-.1.53-.17,2.81,0,.52-.07-.54-.1,1.62,0,2.39-.08-.76-.12,1.61a10.14,10.14,0,0,1-.28,2.21,15,15,0,0,1-.15,1.95c-.06,2.68-.11,1.89-.17,1.35s-.23.88-.36,2c-.13,2.28-.26,2.72-.4,2.88-.13.71-.27,1.29-.42,2.08-.58,3.19-1.23,6.1-1.88,8.57-5.29-.09-6-4.74-7.7-8.46a3.68,3.68,0,0,0,2.51-.18c.64-1,1.2-1.06,2.11-.59-.11-1.33-.2-2.81-.28-4.42-.09-.49-.16-2-.22-4.77a18.48,18.48,0,0,1-.09-2.56c0,.49-.05-.23-.07-2.46,0-1.72,0-2.09,0-2.14,0-1.49,0-1.66,0-1.06s0-2,0-2c0-1.26,0-1.12,0-2.85,0-2.12,0,.82,0-2.32,0-.88,0-3,0-3.82,0-2.51,0-2.74,0-3.73V69.45c0-.6,0-2.73,0-3.39,0-.83,0-1.64,0-2.43s0-1.54,0-2.26c0-1.37,0-3.55,0-4-1.22.37-2.51-.06-3.82,0-3.93.08-8,.32-10.8-.74-.37,1.66-.65,3.51-.89,5.48-.23,2.58-.42,4.48-.61,6.17-.18,2.13-.36,4.94-.57,6.4-.22,2.75-.47,3.73-.79,6.18a41.91,41.91,0,0,1-1.25,5.51c-1.57,5-4.19,8.36-9,8-2.42-2.65,2.44-2.68,3.07-4.62.38-1.26.76-2.63,1.13-4.09s.71-3,1-4.64a29.35,29.35,0,0,0,.89-5c.26-1.16.48-4.44.64-5.3a47.62,47.62,0,0,0,.34-5.44c.06-1.77,0-3.19,0-5.41-.09-1.78-.26-3.54-.51-5.25a34.11,34.11,0,0,0-2.71-9.46,71.05,71.05,0,0,1,4.59-8.39c.82-1.33,1.67-2.65,2.51-4A3.51,3.51,0,0,1,214.59,31c.41-.11.82-1,1.22-2.27.4-2.35.8-1.52,1.18-2.31.39-.37.76-1.59,1.12-1.87.36-.64.71-2.49,1-2.25.33-1.34.65-2.39.95-2.25a20.05,20.05,0,0,1,.83-2.89,11.6,11.6,0,0,0,.71-2.06c1-.7,2.22-1.19,3.33,1A10.26,10.26,0,0,1,226.53,18c.48.76.9.64,1.24,2.34s.6,1.16.74,2.47a6.67,6.67,0,0,1,.05,2.27,10.53,10.53,0,0,1-1.66,3.41,8.25,8.25,0,0,1-3.26,3.2,16.74,16.74,0,0,1-4.14,3,5.4,5.4,0,0,0-4.25,2.84,41.58,41.58,0,0,0-3.64,2.69,9.87,9.87,0,0,0-2.29,2.56c2,3.61,6.18,5.11,6.16,10.78a39.27,39.27,0,0,0,9.71-4.21c1.63-.93,3.28-2.76,4.93-2.88,1.65-.56,3.31-2.46,5-2.81,1.67-.72,3.35-1.38,5-2.29,1.69-.23,3.38-2.19,5.08-1.33a16.29,16.29,0,0,1,5.12.06A16.06,16.06,0,0,1,255.5,42" transform="translate(0 0)"/><path class="c" d="M255.5,42v3.08c-1.26.67-2.56,1.3-3.88,1.9s-2.67,1.17-4,1.73c-1.36,1.45-2.73.95-4.1,1.67-1.37-.25-2.74,2.08-4.09,1.69a4.25,4.25,0,0,0-4,1.79c-1.3-.27-2.56,2-3.78,2,.93.52,1.74,2.87,2.44,3.54a6.61,6.61,0,0,1,1,1.69c.3.77.58,1.91.83,2.72a12.23,12.23,0,0,1,.69,2.68c.2,2.2.39-.43.55,2.42.1,1.47.2,2.7.29,1.81a7.92,7.92,0,0,0,.25,1.89c.07-.78.13,1.64.18,1.6.06-1.44.11,2.78.14,2.28,0,.37.07,1.28.1,2,0,2.29,0-.16,0,2,0,3,0,1.63,0,2.14,0-1.68,0,.74,0,2,0,3-.06.24-.11,2.69-.05.79-.1.53-.17,2.81,0,.52-.07-.54-.1,1.62,0,2.39-.08-.76-.12,1.61a10.14,10.14,0,0,1-.28,2.21,15,15,0,0,1-.15,1.95c-.06,2.68-.11,1.89-.17,1.35s-.23.88-.36,2c-.13,2.28-.26,2.72-.4,2.88-.13.71-.27,1.29-.42,2.08-.58,3.19-1.23,6.1-1.88,8.57-5.29-.09-6-4.74-7.7-8.46a3.68,3.68,0,0,0,2.51-.18c.64-1,1.2-1.06,2.11-.59-.11-1.33-.2-2.81-.28-4.42-.09-.49-.16-2-.22-4.77a18.48,18.48,0,0,1-.09-2.56c0,.49-.05-.23-.07-2.46,0-1.72,0-2.09,0-2.14,0-1.49,0-1.66,0-1.06s0-2,0-2c0-1.26,0-1.12,0-2.85,0-2.12,0,.82,0-2.32,0-.88,0-3,0-3.82,0-2.51,0-2.74,0-3.73V69.45c0-.6,0-2.73,0-3.39,0-.83,0-1.64,0-2.43s0-1.54,0-2.26c0-1.37,0-3.55,0-4-1.22.37-2.51-.06-3.82,0-3.93.08-8,.32-10.8-.74-.37,1.66-.65,3.51-.89,5.48-.23,2.58-.42,4.48-.61,6.17-.18,2.13-.36,4.94-.57,6.4-.22,2.75-.47,3.73-.79,6.18a41.91,41.91,0,0,1-1.25,5.51c-1.57,5-4.19,8.36-9,8-2.42-2.65,2.44-2.68,3.07-4.62.38-1.26.76-2.63,1.13-4.09s.71-3,1-4.64a29.35,29.35,0,0,0,.89-5c.26-1.16.48-4.44.64-5.3a47.62,47.62,0,0,0,.34-5.44c.06-1.77,0-3.19,0-5.41-.09-1.78-.26-3.54-.51-5.25a34.11,34.11,0,0,0-2.71-9.46,71.05,71.05,0,0,1,4.59-8.39c.82-1.33,1.67-2.65,2.51-4A3.51,3.51,0,0,1,214.59,31c.41-.11.82-1,1.22-2.27.4-2.35.8-1.52,1.18-2.31.39-.37.76-1.59,1.12-1.87.36-.64.71-2.49,1-2.25.33-1.34.65-2.39.95-2.25a20.05,20.05,0,0,1,.83-2.89,11.6,11.6,0,0,0,.71-2.06c1-.7,2.22-1.19,3.33,1A10.26,10.26,0,0,1,226.53,18c.48.76.9.64,1.24,2.34s.6,1.16.74,2.47a6.67,6.67,0,0,1,.05,2.27,10.53,10.53,0,0,1-1.66,3.41,8.25,8.25,0,0,1-3.26,3.2,16.74,16.74,0,0,1-4.14,3,5.4,5.4,0,0,0-4.25,2.84,41.58,41.58,0,0,0-3.64,2.69,9.87,9.87,0,0,0-2.29,2.56c2,3.61,6.18,5.11,6.16,10.78a39.27,39.27,0,0,0,9.71-4.21c1.63-.93,3.28-2.76,4.93-2.88,1.65-.56,3.31-2.46,5-2.81,1.67-.72,3.35-1.38,5-2.29,1.69-.23,3.38-2.19,5.08-1.33a16.29,16.29,0,0,1,5.12.06A16.06,16.06,0,0,1,255.5,42Z" transform="translate(0 0)"/><path class="b" d="M174.69,35.08c.37,2-10.61,9.6-13.08,3.85,4.41-1.23,9.24-2,13.08-3.85" transform="translate(0 0)"/><path class="c" d="M174.69,35.08c.37,2-10.61,9.6-13.08,3.85C166,37.7,170.85,36.88,174.69,35.08Z" transform="translate(0 0)"/><path class="b" d="M146.22,80.48a131.23,131.23,0,0,0,14.67-4.78c1.57-.6,3.11-1.22,4.65-1.84a6.1,6.1,0,0,0,4.59-1.9c1.52.14,3.05-.68,4.58-1.91,1.52.31,3-1.16,4.6-1.88,0-1.53-.62-3.29-1.66-3.66-1.05-1.51-2.5-.74-4.09-.72-1.59-.47-3.32.16-4.94.27-1.62.55-3.12-.25-4.25-.72a4.07,4.07,0,0,1-2-3.64c1.8-.32,3.59,1,5.34-.64,1.74.07,3.44-.9,5.05-1.5,1.61-1.08,3.12-.08,4.51-2.27,1.38-1.48,2.63-1.86,3.7-2.95,3.22-3.24,4.84-7.35,3.72-11.88-2.58,3-4.67,6.5-7.24,9.51a26.25,26.25,0,0,1-2.77,2.81c-1.92-.32-3.42-.28-4.51-.89a5.47,5.47,0,0,1-2-3.38,7.76,7.76,0,0,1,.37-4.2c10.14,5.93,15-13,24.63-3.08.17.6,0,1.52.77,1.54-2.08,4.59-6.19,7.16-10,10,2.58,1.76,8.21-5.5,11.54-.77-1.43,2.67-4.08,4.13-6.87,5.44-1.4.66-2.83,1.28-4.17,2A6.81,6.81,0,0,0,180.85,62c1.16.71,2.47,2.24,3.87,1.9a12.51,12.51,0,0,0,4.37-.61c1.49-.42,3-1,4.43-1.32a8.81,8.81,0,0,1,4.07-.26,6,6,0,0,1,3.27,2.6c-.85,1.36-1.9,2.25-3.06,2.11a20.62,20.62,0,0,1-3.69.54,27.64,27.64,0,0,0-3.79.38c-1.21-.12-2.35,1.12-3.32,1.59v5.39a5.64,5.64,0,0,0,3.77,2.19c1.51-.19,3.16,1,4.66,1.31a3.87,3.87,0,0,1,3.72,2.25,6.89,6.89,0,0,1,.94,5c-1.36.18-2.54-.66-3.61-1.4-1.06.33-2-1-2.95-2a16.81,16.81,0,0,1-2.75-2.25c-.93-.34-1.91-2.22-3-2a27.47,27.47,0,0,1,0,6.35c-.23,3.53-.67,3.63-1.3,6.09a18.62,18.62,0,0,1-2.37,4.9A7.34,7.34,0,0,1,181,97.49c-1.17,1.44-2.44.51-3.75-.33a45,45,0,0,1-4.06-4.36c.92-1.27,2.08-.52,3.3-.43s2.5,1.09,3.63-.34V78.17a8.17,8.17,0,0,0-3.94,2.16,17,17,0,0,0-2.83,3.75c-.81,1.25-1.52,3.46-2.23,4.28-.71.48-1.41,2.51-2.18,3.77-.78,1.46-1.64,2.36-2.67,2.2-1.68-.29-2.29-2.39-2.37-3.12a11,11,0,0,1,.81-4.46c.45-1.63.89-2.37.79-3.19a4.17,4.17,0,0,0,4.35-1.22,22.29,22.29,0,0,0,3.55-2c1.11-.76,2.16-1.56,3.25-2.33a25.65,25.65,0,0,1,3.47-2.11,5.8,5.8,0,0,0-.05-2.26,4.23,4.23,0,0,0-.72-1.59c-1.62.58-3.18,1.1-4.69,1.63-1.51,1.24-3,1.59-4.42,2.5-7.26,4.58-14.13,10.35-24,5.1Z" transform="translate(0 0)"/><path class="c" d="M146.22,80.48a131.23,131.23,0,0,0,14.67-4.78c1.57-.6,3.11-1.22,4.65-1.84a6.1,6.1,0,0,0,4.59-1.9c1.52.14,3.05-.68,4.58-1.91,1.52.31,3-1.16,4.6-1.88,0-1.53-.62-3.29-1.66-3.66-1.05-1.51-2.5-.74-4.09-.72-1.59-.47-3.32.16-4.94.27-1.62.55-3.12-.25-4.25-.72a4.07,4.07,0,0,1-2-3.64c1.8-.32,3.59,1,5.34-.64,1.74.07,3.44-.9,5.05-1.5,1.61-1.08,3.12-.08,4.51-2.27,1.38-1.48,2.63-1.86,3.7-2.95,3.22-3.24,4.84-7.35,3.72-11.88-2.58,3-4.67,6.5-7.24,9.51a26.25,26.25,0,0,1-2.77,2.81c-1.92-.32-3.42-.28-4.51-.89a5.47,5.47,0,0,1-2-3.38,7.76,7.76,0,0,1,.37-4.2c10.14,5.93,15-13,24.63-3.08.17.6,0,1.52.77,1.54-2.08,4.59-6.19,7.16-10,10,2.58,1.76,8.21-5.5,11.54-.77-1.43,2.67-4.08,4.13-6.87,5.44-1.4.66-2.83,1.28-4.17,2A6.81,6.81,0,0,0,180.85,62c1.16.71,2.47,2.24,3.87,1.9a12.51,12.51,0,0,0,4.37-.61c1.49-.42,3-1,4.43-1.32a8.81,8.81,0,0,1,4.07-.26,6,6,0,0,1,3.27,2.6c-.85,1.36-1.9,2.25-3.06,2.11a20.62,20.62,0,0,1-3.69.54,27.64,27.64,0,0,0-3.79.38c-1.21-.12-2.35,1.12-3.32,1.59v5.39a5.64,5.64,0,0,0,3.77,2.19c1.51-.19,3.16,1,4.66,1.31a3.87,3.87,0,0,1,3.72,2.25,6.89,6.89,0,0,1,.94,5c-1.36.18-2.54-.66-3.61-1.4-1.06.33-2-1-2.95-2a16.81,16.81,0,0,1-2.75-2.25c-.93-.34-1.91-2.22-3-2a27.47,27.47,0,0,1,0,6.35c-.23,3.53-.67,3.63-1.3,6.09a18.62,18.62,0,0,1-2.37,4.9A7.34,7.34,0,0,1,181,97.49c-1.17,1.44-2.44.51-3.75-.33a45,45,0,0,1-4.06-4.36c.92-1.27,2.08-.52,3.3-.43s2.5,1.09,3.63-.34V78.17a8.17,8.17,0,0,0-3.94,2.16,17,17,0,0,0-2.83,3.75c-.81,1.25-1.52,3.46-2.23,4.28-.71.48-1.41,2.51-2.18,3.77-.78,1.46-1.64,2.36-2.67,2.2-1.68-.29-2.29-2.39-2.37-3.12a11,11,0,0,1,.81-4.46c.45-1.63.89-2.37.79-3.19a4.17,4.17,0,0,0,4.35-1.22,22.29,22.29,0,0,0,3.55-2c1.11-.76,2.16-1.56,3.25-2.33a25.65,25.65,0,0,1,3.47-2.11,5.8,5.8,0,0,0-.05-2.26,4.23,4.23,0,0,0-.72-1.59c-1.62.58-3.18,1.1-4.69,1.63-1.51,1.24-3,1.59-4.42,2.5-7.26,4.58-14.13,10.35-24,5.1Z" transform="translate(0 0)"/><path class="a" d="M158.69,149.46v-1.14a7.39,7.39,0,0,0,1.94-.22.62.62,0,0,0,.28-.35,9.56,9.56,0,0,0,.19-2.28c.05-2.17.07-3.8.07-4.9l0-5.72a12.76,12.76,0,0,0-.14-2.63.57.57,0,0,0-.26-.29,7.58,7.58,0,0,0-2.05-.32v-1.13c1.41,0,2.46.07,3.14.07s1.6,0,2.55-.07q3.13,4,7.07,8.65c1.74,2.08,3.25,3.79,4.52,5.15v-5.37c0-2,0-3.79-.07-5.26a4.77,4.77,0,0,0-.22-1.62.5.5,0,0,0-.29-.23,18.34,18.34,0,0,0-1.9-.19v-1.13c1,0,2,.07,2.93.07,1.34,0,2.54,0,3.62-.07v1.13a9.62,9.62,0,0,0-1.82.22.82.82,0,0,0-.28.19.82.82,0,0,0-.16.31,12.79,12.79,0,0,0-.11,2.08l0,5.41,0,5.46c0,1.46,0,2.92.1,4.38l-.18.19c-1.1-.2-1.87-.33-2.32-.39q-3.48-3.86-8.41-9.68c-1.66-2-3-3.62-4-5v5.26c0,1.43,0,3.15.06,5.17a11.76,11.76,0,0,0,.19,2.57.43.43,0,0,0,.21.23,7.42,7.42,0,0,0,1.94.27v1.14c-1.45-.07-2.49-.1-3.12-.1s-1.64,0-3.36.1" transform="translate(0 0)"/><path class="a" d="M197.91,146.84l.39.4-.61,1.29a7.8,7.8,0,0,1-2.09.91,9.05,9.05,0,0,1-2.37.3,6.25,6.25,0,0,1-4.65-1.71,6.56,6.56,0,0,1-1.7-4.82,9.14,9.14,0,0,1,.5-3.25,4,4,0,0,1,1.33-1.73,14.8,14.8,0,0,1,2.14-1.31,5.67,5.67,0,0,1,2.66-.63,5.49,5.49,0,0,1,3.67,1.24,5,5,0,0,1,1.44,4c0,.22,0,.57-.05,1l-2.22.4c-.68,0-1.67.07-3,.07h-2.93a5.4,5.4,0,0,0,1.4,3.51,4.1,4.1,0,0,0,3,1.18,5.39,5.39,0,0,0,1.53-.22,7,7,0,0,0,1.5-.66m-7.54-5.24c.81.07,1.62.1,2.44.1s1.46,0,2.24-.1l0-.64a4,4,0,0,0-.61-2.44,2,2,0,0,0-1.65-.77,2.25,2.25,0,0,0-1.26.36,2.21,2.21,0,0,0-.79,1,9.8,9.8,0,0,0-.39,2.47" transform="translate(0 0)"/><path class="a" d="M204.77,137.7v-1.11c1.12.06,2.54.1,4.25.1,1.24,0,2.36,0,3.34-.1v1.11l-.88,0a2,2,0,0,0-.88.14.4.4,0,0,0-.19.38c0,.09.16.77.48,2l1.32,4.89,2.71-6c.62-1.37,1-2.36,1.27-3h1.43q.93,2.53,3.83,8.94l1.21-3.61a18.64,18.64,0,0,0,.9-3.24.46.46,0,0,0-.25-.44,8.12,8.12,0,0,0-1.7-.18v-1.11c1.28,0,2.28.07,3,.07s1.66,0,2.64-.07v1.11a4,4,0,0,0-1.3.18,1,1,0,0,0-.32.38,48.94,48.94,0,0,0-1.83,4.8c-.68,2-1.37,4.12-2,6.4h-2.22q-1.52-3.87-3.7-8.53-2.35,4.81-3.8,8.53h-2.23q-.58-2.47-1.78-6.64t-1.41-4.56a.74.74,0,0,0-.29-.33,5.14,5.14,0,0,0-1.54-.23" transform="translate(0 0)"/><path class="a" d="M249.28,149.46v-1.14a10.11,10.11,0,0,0,1.61-.14,1,1,0,0,0,.56-.22,1.09,1.09,0,0,0,.24-.57c.06-.39.12-1.81.16-4.27,0-1.75,0-3.54,0-5.36,0-3.57,0-5.4,0-5.46s-.34-.1-1-.1c-1.25,0-2.33,0-3.24.1a3.36,3.36,0,0,0-.89.14.4.4,0,0,0-.15.24c0,.11-.11.9-.23,2.37h-1.17c0-1.73,0-3.22-.13-4.46l.15-.11q4.26.2,8.29.2t9-.2l.14.21c-.17,1.24-.29,2.7-.36,4.36h-1.12a12.15,12.15,0,0,0-.25-2.47.6.6,0,0,0-.43-.21,33,33,0,0,0-4.3-.17c-.18,0-.29,0-.33.08a2.7,2.7,0,0,0,0,.71l-.08,9.1c0,2.64,0,4.26.07,4.86s.15,1,.32,1.09a10.38,10.38,0,0,0,2.14.28v1.14c-1.33-.07-2.74-.1-4.23-.1-2,0-3.55,0-4.77.1" transform="translate(0 0)"/><path class="a" d="M281.35,148.35v1.11l-1,0c-.55,0-1.11,0-1.66,0-.85,0-1.65,0-2.41.08l-.14-.15.14-1.86-2.82,2.12a6.45,6.45,0,0,1-1.34.17,2.83,2.83,0,0,1-2.21-.85,3.53,3.53,0,0,1-.79-2.49,3.39,3.39,0,0,1,1.07-2.84q1.38-1.08,6.09-1.94a4.07,4.07,0,0,0-.56-2.32,2.66,2.66,0,0,0-2.29-1,3.33,3.33,0,0,0-.75.09,3.6,3.6,0,0,0-.77.28l-.61,1.44-.93-.23,0-.61v-1.13a18.16,18.16,0,0,1,3-1.61,5.57,5.57,0,0,1,1.84-.25,5.88,5.88,0,0,1,2.6.49,3.17,3.17,0,0,1,1.46,1.3,5.07,5.07,0,0,1,.46,2.42c0,.44,0,1.23-.05,2.37s-.06,2.12-.06,2.83a11.27,11.27,0,0,0,.1,2.06.49.49,0,0,0,.26.34,5.43,5.43,0,0,0,1.44.25m-5.11-5.56a7.83,7.83,0,0,0-3.09,1.12,2,2,0,0,0-.71,1.62,1.82,1.82,0,0,0,.45,1.3,1.55,1.55,0,0,0,1.16.48,3.15,3.15,0,0,0,2.19-1.21Z" transform="translate(0 0)"/><path class="a" d="M287.8,149.46v-1.11a6.37,6.37,0,0,0,1.76-.19c.16-.09.26-.35.31-.76.07-.57.11-1.83.11-3.77,0-.84,0-1.61,0-2.33l0-1.58a1.69,1.69,0,0,0-.17-1,1.55,1.55,0,0,0-.92-.21l-1,0v-1a16.72,16.72,0,0,0,5.37-1.17l.34.27q-.21,2.59-.21,7.54a34.46,34.46,0,0,0,.1,3.46.76.76,0,0,0,.25.54,6.87,6.87,0,0,0,1.76.25v1.11c-1.62-.06-2.88-.08-3.77-.08-.48,0-1.76,0-3.84.08m3.76-19.63a2,2,0,0,1,1.48.61,2,2,0,0,1,.62,1.5,2.11,2.11,0,1,1-2.1-2.11" transform="translate(0 0)"/><path class="a" d="M301.88,138.49v-1.05a21.27,21.27,0,0,0,3.92-.63l1.45-.45c.12,0,.19.11.19.32s0,.42-.05.73l0,1.24,2.19-1.73a3.69,3.69,0,0,1,2.3-.56,4.86,4.86,0,0,1,3.66,1.42,5.21,5.21,0,0,1,1.38,3.81,8.33,8.33,0,0,1-.34,2.37,6.85,6.85,0,0,1-.82,1.85,8.09,8.09,0,0,1-1.67,1.62q-2,1.63-2.43,1.86a3.62,3.62,0,0,1-1.85.45,5,5,0,0,1-1.22-.15,5.42,5.42,0,0,1-1.2-.44l.05,4.11a3.47,3.47,0,0,0,.31,1.74,4.26,4.26,0,0,0,2,.25v1.11c-1.4-.06-2.61-.09-3.65-.09-2,0-3.38,0-4.19.09v-1.11a5.68,5.68,0,0,0,1.65-.17.51.51,0,0,0,.2-.25,16.22,16.22,0,0,0,.17-2.78c.06-2.29.09-4,.09-5.11l0-5.37a13.74,13.74,0,0,0-.15-2.71.51.51,0,0,0-.2-.25,6.41,6.41,0,0,0-1.73-.12m5.48,8a4.23,4.23,0,0,0,1.32,1.17,3.22,3.22,0,0,0,1.56.39,2.72,2.72,0,0,0,2.28-1.19,6.57,6.57,0,0,0,.88-3.85,5,5,0,0,0-.91-3.25,2.84,2.84,0,0,0-2.31-1.11,3.18,3.18,0,0,0-1.41.34,5.34,5.34,0,0,0-1.41,1Z" transform="translate(0 0)"/><path class="a" d="M335.15,146.84l.39.4-.6,1.29a7.86,7.86,0,0,1-2.1.91,9.05,9.05,0,0,1-2.37.3,6.25,6.25,0,0,1-4.65-1.71,6.56,6.56,0,0,1-1.7-4.82,9.14,9.14,0,0,1,.5-3.25,4,4,0,0,1,1.34-1.73,15.23,15.23,0,0,1,2.13-1.31,5.7,5.7,0,0,1,2.66-.63,5.49,5.49,0,0,1,3.67,1.24,5,5,0,0,1,1.45,4c0,.22,0,.57-.06,1l-2.21.4c-.69,0-1.68.07-3,.07H327.7a5.4,5.4,0,0,0,1.39,3.51,4.1,4.1,0,0,0,3,1.18,5.39,5.39,0,0,0,1.53-.22,7,7,0,0,0,1.5-.66m-7.54-5.24c.82.07,1.63.1,2.44.1s1.46,0,2.24-.1l0-.64a3.91,3.91,0,0,0-.61-2.44,2,2,0,0,0-1.65-.77,2.25,2.25,0,0,0-1.26.36,2.13,2.13,0,0,0-.78,1,9.67,9.67,0,0,0-.4,2.47" transform="translate(0 0)"/><path class="a" d="M342.76,149.46v-1.11a6.54,6.54,0,0,0,1.77-.19c.15-.09.26-.35.3-.76.07-.57.11-1.83.11-3.77,0-.84,0-1.61,0-2.33l0-1.58a1.69,1.69,0,0,0-.17-1,1.52,1.52,0,0,0-.92-.21l-1,0v-1a16.72,16.72,0,0,0,5.37-1.17l.34.27c-.14,1.73-.2,4.24-.2,7.54,0,1.91,0,3.06.09,3.46a.8.8,0,0,0,.25.54,6.9,6.9,0,0,0,1.77.25v1.11c-1.63-.06-2.89-.08-3.78-.08-.47,0-1.76,0-3.84.08m3.76-19.63a2,2,0,0,1,1.48.61,2,2,0,0,1,.62,1.5,2.11,2.11,0,0,1-4.21,0,2,2,0,0,1,.62-1.5,2,2,0,0,1,1.49-.61" transform="translate(0 0)"/><path class="a" d="M386.85,146.52l.34.31a12.14,12.14,0,0,0-.62,1.38,13.06,13.06,0,0,1-3,1.17,14.51,14.51,0,0,1-3.34.35,13.12,13.12,0,0,1-6-1.25,8.91,8.91,0,0,1-3.76-3.5,10.08,10.08,0,0,1-1.32-5.18,8.83,8.83,0,0,1,3-6.89q3-2.68,8.23-2.69a19.11,19.11,0,0,1,3.46.31,19.4,19.4,0,0,1,3.4.95l.09.2a8,8,0,0,0-.34,1.41c-.12.78-.21,1.76-.28,2.92h-1.13a16.57,16.57,0,0,0-.17-2.35,2.43,2.43,0,0,0-.74-.71,5.23,5.23,0,0,0-1.79-.83,9.22,9.22,0,0,0-2.49-.32,6.82,6.82,0,0,0-5.16,2,7.79,7.79,0,0,0-1.91,5.58,8.67,8.67,0,0,0,2.3,6.26,7.68,7.68,0,0,0,5.83,2.22,11.4,11.4,0,0,0,2.68-.3,13.18,13.18,0,0,0,2.77-1" transform="translate(0 0)"/><path class="a" d="M393.88,149.46v-1.11a6.54,6.54,0,0,0,1.77-.19c.15-.09.26-.35.3-.76.07-.57.11-1.83.11-3.77,0-.84,0-1.61,0-2.33l0-1.58a1.69,1.69,0,0,0-.17-1,1.51,1.51,0,0,0-.91-.21l-1,0v-1a16.72,16.72,0,0,0,5.37-1.17l.34.27c-.14,1.73-.2,4.24-.2,7.54,0,1.91,0,3.06.09,3.46a.8.8,0,0,0,.25.54,6.9,6.9,0,0,0,1.77.25v1.11c-1.63-.06-2.89-.08-3.78-.08-.47,0-1.76,0-3.84.08m3.76-19.63a2,2,0,0,1,1.48.61,2,2,0,0,1,.62,1.5,2.11,2.11,0,0,1-4.21,0,2,2,0,0,1,.62-1.5,2,2,0,0,1,1.49-.61" transform="translate(0 0)"/><path class="a" d="M407.55,138.58l1.8-1.18c0-1.59-.07-3-.14-4.19a23.05,23.05,0,0,0,3.49-1.38l.41.31a48.42,48.42,0,0,0-.41,5.26,6.57,6.57,0,0,0,1.24.11,14.17,14.17,0,0,0,2.47-.19l.12.08-.12.49c-.13.51-.23,1-.3,1.39-1.05-.07-1.83-.1-2.32-.1a9.83,9.83,0,0,0-1.09,0c0,.91,0,1.72,0,2.41a24.42,24.42,0,0,0,.27,5.18c.18.41.61.62,1.28.62a3.07,3.07,0,0,0,.65-.07,4.64,4.64,0,0,0,.73-.19l.23.52c-.54.6-1.06,1.23-1.58,1.88l-.92.12a7.23,7.23,0,0,1-.77,0,4.15,4.15,0,0,1-1.9-.39,2.52,2.52,0,0,1-1.11-1,3.89,3.89,0,0,1-.35-1.85c0-.44,0-1.58.07-3.42.05-1.61.07-2.89.07-3.83l-.69,0a10.64,10.64,0,0,0-1.11.08Z" transform="translate(0 0)"/><path class="a" d="M421.51,137.7v-1.11c2.07.06,3.4.08,4,.08.81,0,1.94,0,3.4-.08v1.11a5.63,5.63,0,0,0-1.5.18.46.46,0,0,0-.23.43,24.33,24.33,0,0,0,1.32,3.74l1.48,3.73,1.26-2.94a24.75,24.75,0,0,0,1.69-4.57.41.41,0,0,0-.24-.4,5.52,5.52,0,0,0-1.45-.17v-1.11l.85,0,1.81,0c.33,0,1.17,0,2.54-.08v1.11a2.57,2.57,0,0,0-1.08.2,1,1,0,0,0-.31.3c-.14.2-.71,1.44-1.7,3.73l-2.52,5.76L428.46,153a9.45,9.45,0,0,1-1.43,2.29,4.06,4.06,0,0,1-1.37,1,4.24,4.24,0,0,1-1.66.32,4.69,4.69,0,0,1-1.95-.46,23,23,0,0,0,.47-2.6l.37-.12a2.42,2.42,0,0,0,1.85.88,2,2,0,0,0,1.47-.58,14,14,0,0,0,1.82-3.37l-3-7.65-1.66-4.11a1.41,1.41,0,0,0-.47-.65,4,4,0,0,0-1.37-.24" transform="translate(0 0)"/><path class="a" d="M467.27,142.8v-1.09c1.65,0,3.11.06,4.4.06s2.48,0,3.86-.06v.86a9.66,9.66,0,0,0-1.14.45,19.65,19.65,0,0,0-.16,2.33c0,.46,0,1.37.16,2.73a31.52,31.52,0,0,1-4.48,1.31,20.81,20.81,0,0,1-3.74.34c-3.49,0-6.21-.91-8.18-2.71a9.12,9.12,0,0,1-3-7,9,9,0,0,1,3-7.1q3-2.67,8.66-2.67a22.44,22.44,0,0,1,3.81.31,17.83,17.83,0,0,1,3.48.95l.12.2a28.86,28.86,0,0,0-.58,4.28H472.4a16.61,16.61,0,0,0-.17-2.28,5.43,5.43,0,0,0-2.23-1.5,9.41,9.41,0,0,0-3.21-.5,7.41,7.41,0,0,0-5.54,2.11,7.91,7.91,0,0,0-2.06,5.78,9,9,0,0,0,2.17,6.31,6.94,6.94,0,0,0,5.35,2.39,9.08,9.08,0,0,0,3.59-.83,17.08,17.08,0,0,0,.11-2,5.27,5.27,0,0,0-.24-2.3,9.44,9.44,0,0,0-2.9-.37" transform="translate(0 0)"/><path class="a" d="M482.93,143a6,6,0,0,1,6.7-6.73q3.38,0,4.94,1.54c1,1,1.55,2.63,1.55,4.83a7.19,7.19,0,0,1-1.79,5.24,6.62,6.62,0,0,1-5,1.84,6.27,6.27,0,0,1-4.78-1.72,7,7,0,0,1-1.64-5m3.75-.92a10.62,10.62,0,0,0,.92,5.14,2.37,2.37,0,0,0,2.15,1.17,2.2,2.2,0,0,0,1.94-1,6.86,6.86,0,0,0,.69-3.65c0-2.42-.28-4.1-.84-5a2.35,2.35,0,0,0-2.15-1.11,2.29,2.29,0,0,0-2,1,6.11,6.11,0,0,0-.73,3.46" transform="translate(0 0)"/><path class="a" d="M502.27,137.7v-1.11l3.48.08c1.17,0,2.43,0,3.76-.08v1.11a6.09,6.09,0,0,0-1.49.15.37.37,0,0,0-.24.37,2.49,2.49,0,0,0,.14.63l.81,2.26,1.8,4.67,1.77-4.14a16,16,0,0,0,1.23-3.4.38.38,0,0,0-.22-.38,6.89,6.89,0,0,0-1.57-.16v-1.11c1.18.06,2.14.08,2.88.08s1.67,0,2.59-.08v1.11a2.53,2.53,0,0,0-1.35.28,17.27,17.27,0,0,0-1.57,3q-1.29,2.79-3.66,8.47h-2.38c-.59-1.64-1.49-4-2.68-6.94-.78-2-1.31-3.24-1.58-3.84a1.9,1.9,0,0,0-.51-.75,3.17,3.17,0,0,0-1.21-.23" transform="translate(0 0)"/><path class="a" d="M534.7,146.84l.39.4-.61,1.29a7.94,7.94,0,0,1-2.09.91,9.11,9.11,0,0,1-2.37.3,6.25,6.25,0,0,1-4.65-1.71,6.56,6.56,0,0,1-1.7-4.82,9.14,9.14,0,0,1,.5-3.25,4,4,0,0,1,1.33-1.73,14.8,14.8,0,0,1,2.14-1.31,5.67,5.67,0,0,1,2.66-.63,5.44,5.44,0,0,1,3.66,1.24,5,5,0,0,1,1.45,4c0,.22,0,.57,0,1l-2.22.4c-.68,0-1.67.07-3,.07h-2.93a5.45,5.45,0,0,0,1.39,3.51,4.14,4.14,0,0,0,3,1.18,5.27,5.27,0,0,0,1.52-.22,6.86,6.86,0,0,0,1.51-.66m-7.54-5.24c.81.07,1.62.1,2.44.1s1.46,0,2.24-.1V141a4,4,0,0,0-.6-2.44,2,2,0,0,0-1.65-.77,2.25,2.25,0,0,0-1.26.36,2.08,2.08,0,0,0-.79,1,9.8,9.8,0,0,0-.39,2.47" transform="translate(0 0)"/><path class="a" d="M541.74,149.46v-1.11a7.05,7.05,0,0,0,1.57-.17.55.55,0,0,0,.25-.25,4.58,4.58,0,0,0,.18-1.44c0-1.32,0-2.52,0-3.6,0-2.09,0-3.33-.08-3.71a.62.62,0,0,0-.24-.48,5.45,5.45,0,0,0-1.73-.2v-1a20.43,20.43,0,0,0,3.9-.65l1.39-.52c.12,0,.19.09.19.26v.19c0,.57-.05,1.39-.05,2.45a19.52,19.52,0,0,0,1.53-1.68,4.14,4.14,0,0,1,1.08-1,2.84,2.84,0,0,1,1.23-.23,2.71,2.71,0,0,1,.88.15c-.08.91-.13,2.13-.16,3.69l-.61.21a1.65,1.65,0,0,0-1.65-1,2.31,2.31,0,0,0-1.39.42,1.86,1.86,0,0,0-.75,1,19.06,19.06,0,0,0-.1,2.76c0,2.29,0,3.63.09,4a.7.7,0,0,0,.26.51,6,6,0,0,0,2,.29v1.11l-1.51,0c-1,0-1.8,0-2.51,0s-1.44,0-2.32,0Z" transform="translate(0 0)"/><path class="a" d="M558,149.46v-1.11a5.07,5.07,0,0,0,1.67-.24,1.07,1.07,0,0,0,.23-.7c.05-.91.08-2.52.08-4.82q0-1.71-.06-2.94a2.74,2.74,0,0,0-.1-.89.43.43,0,0,0-.22-.17,14.64,14.64,0,0,0-1.6-.09v-1a13.07,13.07,0,0,0,2.29-.32,17,17,0,0,0,2.61-.72l.37-.13c.12,0,.18.11.18.31v.13c0,.25,0,.9,0,2l2.09-1.76a2.16,2.16,0,0,1,.81-.46,5.49,5.49,0,0,1,1.45-.17,4.86,4.86,0,0,1,2.34.5,3.06,3.06,0,0,1,1.34,1.37,6.58,6.58,0,0,1,.43,2.72c0,.54,0,1.17,0,1.88,0,1.47-.07,2.73-.07,3.8a3.65,3.65,0,0,0,.15,1.26.56.56,0,0,0,.3.32,7.83,7.83,0,0,0,1.48.21v1.11L572,149.4l-1.07,0-2.79.08-.15-.18a38.18,38.18,0,0,0,.35-5.28,12.31,12.31,0,0,0-.41-4.24,2,2,0,0,0-2-1,2.79,2.79,0,0,0-1.6.47,2.2,2.2,0,0,0-.87,1,4.94,4.94,0,0,0-.1,1.37c0,3.28,0,5.15,0,5.63s.1.76.23.87a4.56,4.56,0,0,0,1.81.29v1.11c-1.57-.06-2.89-.08-4-.08-.64,0-1.81,0-3.51.08" transform="translate(0 0)"/><path class="a" d="M580,149.46v-1.11a5.14,5.14,0,0,0,1.59-.19.65.65,0,0,0,.25-.46,27.11,27.11,0,0,0,.11-3.15,51.52,51.52,0,0,0-.14-5.64c-.07-.25-.38-.37-.94-.38l-.87,0v-1a24.49,24.49,0,0,0,2.83-.45,13.28,13.28,0,0,0,2.12-.65,1.17,1.17,0,0,1,.29-.07c.12,0,.19.12.19.34s0,.4,0,.69c0,.13,0,.35,0,.68v.49l2.22-1.67a3.53,3.53,0,0,1,2.13-.53,4.1,4.1,0,0,1,2.3.57,3.5,3.5,0,0,1,1.29,1.79l2.3-1.83a2.91,2.91,0,0,1,1.85-.53,4.15,4.15,0,0,1,3.13,1.05,4.75,4.75,0,0,1,1,3.39l0,1.12c0,1.25,0,2.36,0,3.34a15.84,15.84,0,0,0,.12,2.51.79.79,0,0,0,.28.44,5.6,5.6,0,0,0,1.52.21v1.11c-1.12-.06-2.1-.08-2.93-.08s-1.65,0-2.52.08l-.16-.26a48.39,48.39,0,0,0,.35-5.69q0-3.28-.51-4.11a1.94,1.94,0,0,0-1.8-.82,2.64,2.64,0,0,0-1.48.42,2.1,2.1,0,0,0-.84,1,11.38,11.38,0,0,0-.13,2.38q0,3.58.09,4.95a1.12,1.12,0,0,0,.25.78,5.3,5.3,0,0,0,1.73.28v1.11c-1.19-.06-2.34-.08-3.48-.08-1.42,0-2.69,0-3.82.08v-1.11c.9,0,1.42-.13,1.57-.39a12,12,0,0,0,.23-3.4,38.77,38.77,0,0,0-.13-4.27,2,2,0,0,0-.66-1.28,2.23,2.23,0,0,0-1.44-.43,2.44,2.44,0,0,0-1.23.31,2.69,2.69,0,0,0-.93.88,1.68,1.68,0,0,0-.22,1v.51c0,.26,0,1,0,2.13l0,1.6a25.22,25.22,0,0,0,.08,2.73.52.52,0,0,0,.23.39,5.22,5.22,0,0,0,1.48.25v1.11c-1.08-.06-2.27-.08-3.55-.08-.45,0-1.67,0-3.65.08" transform="translate(0 0)"/><path class="a" d="M620.83,146.84l.39.4-.6,1.29a7.94,7.94,0,0,1-2.09.91,9.18,9.18,0,0,1-2.38.3A6.28,6.28,0,0,1,611.5,148a6.55,6.55,0,0,1-1.69-4.82,8.92,8.92,0,0,1,.5-3.25,3.88,3.88,0,0,1,1.33-1.73,14.8,14.8,0,0,1,2.14-1.31,5.64,5.64,0,0,1,2.66-.63,5.46,5.46,0,0,1,3.66,1.24,5,5,0,0,1,1.45,4c0,.22,0,.57-.06,1l-2.21.4c-.68,0-1.67.07-3,.07h-2.93a5.4,5.4,0,0,0,1.39,3.51,4.13,4.13,0,0,0,3,1.18,5.29,5.29,0,0,0,1.53-.22,6.6,6.6,0,0,0,1.5-.66m-7.53-5.24c.81.07,1.62.1,2.43.1s1.46,0,2.25-.1V141a3.91,3.91,0,0,0-.61-2.44,2,2,0,0,0-1.65-.77,2.27,2.27,0,0,0-1.26.36,2.13,2.13,0,0,0-.78,1,9.8,9.8,0,0,0-.39,2.47" transform="translate(0 0)"/><path class="a" d="M628.36,149.46v-1.11a5.07,5.07,0,0,0,1.67-.24,1.07,1.07,0,0,0,.23-.7c0-.91.08-2.52.08-4.82q0-1.71-.06-2.94a3.08,3.08,0,0,0-.1-.89.43.43,0,0,0-.22-.17,14.64,14.64,0,0,0-1.6-.09v-1a13.07,13.07,0,0,0,2.29-.32,17,17,0,0,0,2.61-.72l.36-.13c.13,0,.19.11.19.31v.13c0,.25,0,.9,0,2l2.09-1.76a2.08,2.08,0,0,1,.81-.46,5.49,5.49,0,0,1,1.45-.17,4.89,4.89,0,0,1,2.34.5,3.06,3.06,0,0,1,1.34,1.37,6.61,6.61,0,0,1,.42,2.72c0,.54,0,1.17,0,1.88,0,1.47-.06,2.73-.06,3.8a3.65,3.65,0,0,0,.15,1.26.56.56,0,0,0,.3.32,7.83,7.83,0,0,0,1.48.21v1.11l-1.66-.06-1.07,0-2.79.08-.15-.18a38.18,38.18,0,0,0,.35-5.28,12.21,12.21,0,0,0-.42-4.24,2,2,0,0,0-2-1,2.77,2.77,0,0,0-1.6.47,2.29,2.29,0,0,0-.88,1,5.63,5.63,0,0,0-.09,1.37c0,3.28,0,5.15,0,5.63s.1.76.23.87a4.56,4.56,0,0,0,1.81.29v1.11c-1.57-.06-2.89-.08-4-.08-.65,0-1.81,0-3.51.08" transform="translate(0 0)"/><path class="a" d="M649.81,138.58l1.8-1.18c0-1.59-.06-3-.13-4.19a23.91,23.91,0,0,0,3.49-1.38l.4.31a46.36,46.36,0,0,0-.4,5.26,6.39,6.39,0,0,0,1.23.11,14.17,14.17,0,0,0,2.47-.19l.12.08-.12.49a13.37,13.37,0,0,0-.29,1.39c-1.06-.07-1.84-.1-2.33-.1a9.54,9.54,0,0,0-1.08,0c0,.91,0,1.72,0,2.41a24.42,24.42,0,0,0,.27,5.18c.18.41.61.62,1.29.62a3,3,0,0,0,.64-.07,5.05,5.05,0,0,0,.74-.19l.22.52c-.54.6-1.06,1.23-1.58,1.88l-.92.12a7.1,7.1,0,0,1-.77,0,4.15,4.15,0,0,1-1.9-.39,2.52,2.52,0,0,1-1.11-1,3.9,3.9,0,0,1-.34-1.85q0-.66.06-3.42c.05-1.61.07-2.89.07-3.83l-.69,0a10.64,10.64,0,0,0-1.11.08Z" transform="translate(0 0)"/><path class="d" d="M31.58,44.93l9.53,2-.5,4,9.77,1.76L60.66,2.32S41.6-5.2,31.58,6.83V21.37h1c5.26-11.28,15.54-8,15.54-8L42.86,37.91,31.58,35.65ZM28.07,12.85S7.52,12.6,2.26,39.41l29.32,5.52V35.65L15,32.4c2.26-9.78,13.28-11,16.54-11V6.83a22.49,22.49,0,0,0-3.51,6" transform="translate(0 0)"/><path class="e" d="M40.61,50.94l-1,3.76-16-3.25V61l14,3L33.09,88.54A13.67,13.67,0,0,1,23.56,82V98.31c7.52,5,17.05,5.27,17.05,5.27L50.38,52.7Zm-17,.51L1,46.93C-4.51,73.75,14.54,81.27,14.54,81.27c0,8.52,4,13.79,9,17V82a16.71,16.71,0,0,1-1.75-6.76S7.52,70,9.53,58.21l14,2.76Z" transform="translate(0 0)"/><path class="f" d="M94,26.13c0-8.77-4.26-14-9.27-17.29v17a14.71,14.71,0,0,1,1.5,6.52S100.5,37.66,98.5,49.19L84.72,46.43v9.28l22.8,4.76C113,33.65,94,26.13,94,26.13M84.72,8.84c-7.52-4.52-17-4.77-17-4.77L57.9,54.7l10,2.26,1-4.26,15.79,3V46.43l-14-2.75,4.26-24.57a12.91,12.91,0,0,1,9.78,6.77Z" transform="translate(0 0)"/><path class="g" d="M77.2,100.32a16.75,16.75,0,0,0,3.25-5.51S101,95.06,106,68L77.2,62.47V72l16.54,3.26C91.73,84.78,81,86,77.2,86.28Zm-10-39.6L67.92,57l-10-2.26-10,50.63s19.55,7.52,29.33-5v-14H76c-5,11.28-15.29,8-15.29,8l5-24.56L77.2,72V62.47Z" transform="translate(0 0)"/><path class="h" d="M1,111.1s14.79-3.76,22.06,12.53c0,0,5.26,8.77,6.27,17,0,0-8.53-2.5-14.54-14.53,0,0-5.26-10.28-13.79-15" transform="translate(0 0)"/><path class="h" d="M44.62,107.09s-16,16.54-8.53,29.57c0,0,3.51,2.51,6.27-2.75,0,0-5.76,0-3.76-7.27a63.53,63.53,0,0,1,6-19.55" transform="translate(0 0)"/><path class="h" d="M35.34,149.19s26.07-35.59,57.4-21.8c0,0-18.8,5.76-23.81,8.77,0,0-17.3,13-33.59,13" transform="translate(0 0)"/></svg>