<?xml version="1.0" encoding="utf-8"?>
<!-- Generator: Adobe Illustrator 22.0.2, SVG Export Plug-In . SVG Version: 6.00 Build 0)  -->
<svg version="1.1" id="Layer_1" xmlns="http://www.w3.org/2000/svg" xmlns:xlink="http://www.w3.org/1999/xlink" x="0px" y="0px"
	 viewBox="0 0 1040.6 390.3" style="enable-background:new 0 0 1040.6 390.3;" xml:space="preserve">
<style type="text/css">
	.st0{fill:#FFFFFF;}
	.st1{fill:#3E3A95;}
	.st2{fill:#FF5003;}
</style>
<g>
	<rect class="st0" width="1040.6" height="390.3"/>
</g>
<g>
</g>
<g>
</g>
<g>
</g>
<g>
</g>
<g>
</g>
<g>
	<path class="st1" d="M27.2,215v20.2h68.3v-34.7H77.8l15.1-18.9v-19.4L66.7,162l31.2-40.9H59.6l-32.7,41.3v18.5h28L27.2,215z
		 M76.1,203.3v13.1H65.5L76.1,203.3z"/>
</g>
<g>
	<rect x="52.2" y="241.6" class="st1" width="18.9" height="54.8"/>
</g>
<g>
	<polygon class="st1" points="192.5,142.6 206.1,123.3 112.5,123.3 98,142.6 	"/>
</g>
<g>
	<polygon class="st1" points="201.8,160.5 182.7,143.2 167.6,156.8 152.5,143.2 137.4,156.8 122.2,143.2 103.1,160.5 111.4,160.5 
		102.6,187.9 111.6,220.8 135.9,220.8 125.9,187.8 134.7,160.5 140.5,160.5 131,187.8 141.2,220.8 165.1,220.8 154.4,187.8 
		163.3,160.5 163.5,160.5 169,160.5 159.7,187.8 170.6,220.8 193.9,220.8 183,187.8 191.8,160.5 	"/>
</g>
<g>
	<rect x="27.2" y="241.6" class="st1" width="19.8" height="54.8"/>
</g>
<g>
	<polygon class="st1" points="273.7,213.8 263.4,169.1 230,169.1 240.3,213.8 	"/>
</g>
<g>
	<polygon class="st1" points="273.5,163 263.8,120.9 230.4,120.9 240,163 	"/>
</g>
<g>
	<polygon class="st1" points="283.8,151.7 402.1,151.7 410,132.8 362.4,132.8 357.8,120.9 317.7,120.9 321.9,132.8 275.9,132.8 	"/>
</g>
<g>
	<path class="st1" d="M297.3,217.4l2.8-11.7l5.4,11.7h21v-40.1l6.9,10.1v31.7h26.2v-34.9l6.5-10.3v43.5h25.6l5.8-11.7l2.2,11.7h12.9
		l-5.4-33.7h-13.5l2.8,17.1h-5.8v-22.2h14.7l6.7-23.8h-24.6l-1.2,6h-11.9l3.8-5.8h-25l-8.3,12.7l-8.3-12.5H311l3.8,5.6h-38.9v18.5
		h6.3l-8.3,38.3H297.3z M305.8,179.1h3v19.8h-7.5L305.8,179.1z"/>
</g>
<g>
	<path class="st1" d="M438,295.4h77.3v-56.2h-41.5v-15.3h41.3v-50.8h-23.2l25.8-29v-20.2h-76.8l7.9,18.5H478l-8.1,9.1l-1.8-3.6
		h-32.5l13.5,26.6l-18.3,20.2h41.7l5-5.6h6.2v16.9h-41.5v50.8h41.5v19.8h-40L438,295.4z M412.1,276.7v-54.6H365v5.8h-46v-5.8h-35.7
		v49.6l-14.7,24.2H306l12.9-20.2h46v19.7h34.3h12.8V276.7z M365,256.5h-46v-10.1h46V256.5z"/>
</g>
<g>
	<polygon class="st1" points="605.4,249.7 605.4,231.3 519.5,231.3 519.5,248.5 565.9,248.5 561.4,253.3 523.5,253.3 542.9,270.1 
		516.5,295.3 557.4,295.1 564.3,288.6 571.9,295.1 612.6,295.1 583.8,270.3 	"/>
</g>
<g>
	<polygon class="st1" points="818.2,246.3 786.6,246.3 782,254.7 774.3,246.3 730.6,246.3 775.9,296.3 820.1,296.3 801.9,276.3 	"/>
</g>
<g>
	<path class="st1" d="M851,173.7v93.9l-8.1,28.4h37.9l6.9-23.2v-62.5h95.8v66.9h-8.9v-56.4h-80v61.7h58.7l6.7,13.5h59.7V192H887.7
		v-13.3h129v-55.2H852.1H851V173.7z M817.5,123.5H646.9v18.7V174v53.3v35.3l-5.8,33.7h37.9l5-25v-31.5h10.7v56.6h51.6l6.5-18.5
		h-22.6v-38.1h78.2l7.9-18.1h-21.4v-14.3H812v-18.1h-17.1v-9.9h-35.5v9.9h-20v-9.9h-34.5v9.9h-15.3v18.1h15.3v14.3H684v-48h133.5
		L817.5,123.5z M612.4,208.8h-16.1v-14.1h16.1l-17.7-24l17.7-26.4h-27.2l-5,7.3l-3.2-4.4l15.5-24.2h-24.4l-4.6,6.2l-6.4-8.1h-39.9
		l37.3,52h-32.5V214l-6,13.3h33.9l4.8-14.3v-20.8h9.7v35.1h47.8L612.4,208.8z M887.7,142.6h90.7V160h-90.7V142.6z M739.4,207.4h20
		v14.3h-20V207.4z M781,155.3h-97v-12.7h97V155.3z M941.9,264.2h-14.7v-25h14.7V264.2z"/>
</g>
<g>
	<polygon class="st1" points="237.6,243.3 230.9,296.7 264.2,296.7 273.9,220.9 240.6,220.9 240,226.5 	"/>
</g>
<g>
	<g>
		<polyline class="st1" points="94.3,290.1 94.3,277.1 94.3,271.9 94.3,240.7 74.5,240.7 74.5,290.1 94.3,290.1 		"/>
	</g>
	<g>
		<polygon class="st1" points="163.5,276.9 163.5,244 203,244 203,227.5 100.3,227.5 108.2,244 130.5,244 130.5,276.9 109.3,276.9 
			100.9,296.7 194.5,296.7 202.4,276.9 		"/>
	</g>
</g>
<g>
	<rect x="390.9" y="232.6" class="st0" width="4.1" height="56.7"/>
</g>
<g>
	
		<rect x="563.2" y="119.6" transform="matrix(0.7908 -0.6121 0.6121 0.7908 27.7071 376.9125)" class="st0" width="4.1" height="56.7"/>
</g>
<g>
	<path class="st0" d="M1008.8,297.4h-2.9c-0.3,0-0.6-0.3-0.6-0.6v-91.9c0-0.3,0.3-0.6,0.6-0.6h2.9c0.3,0,0.6,0.3,0.6,0.6v91.9
		C1009.4,297.1,1009.1,297.4,1008.8,297.4z"/>
</g>
<g>
	<g>
		<path class="st1" d="M74.6,50.8H59.4c2.8-4.3,5.4-8.7,8-13.3l-4.6-2.3C60,40.3,57.1,45.5,54,50.8H27V55h47.5V50.8z"/>
	</g>
	<g>
		<path class="st1" d="M48.7,76.7v30h4.9V77.4c4.6,4.8,9.4,10.7,14.5,17.5l3.8-3.4c-3.6-4.6-8.9-10.3-16-17.1l-2.3,1.9v-3.8h18.3
			v-4.6H53.7V58h-4.9v9.9H29.3v4.6h17.9C42.4,81.4,35.4,89,26.3,95.3c0.2,0.3,0.5,0.5,0.8,0.8c1.5,1.3,2.5,2.3,3,3
			C38.2,93,44.4,85.5,48.7,76.7z"/>
	</g>
	<g>
		<path class="st1" d="M67.7,104.1c1.5,1.3,3,2.4,4.6,3.4c8.9-10.1,13.1-25.4,12.6-45.6v-3h16v49.4h5.3V58.8h12.9v-4.6H84.9V29.9
			c11.9-0.8,22.4-1.8,31.6-3l-1.5-4.9c-12.9,1.8-24.6,2.9-35,3.4v36.1C80.4,81.2,76.4,95.4,67.7,104.1z"/>
	</g>
	<g>
		<path class="st1" d="M42.3,49.7l4.2-2.3c-2.5-4.6-5.1-8.6-7.6-12.2l-4.2,2.3C37.2,41,39.7,45.1,42.3,49.7z"/>
	</g>
	<g>
		<polygon class="st1" points="71.9,28.4 53.7,28.4 53.7,18.5 48.7,18.5 48.7,28.4 29.7,28.4 29.7,32.9 71.9,32.9 		"/>
	</g>
	<g>
		<path class="st1" d="M129.3,93.4l2.3,4.9c3.3-1,8.9-3.2,16.7-6.5c4.8-2,8.1-3.4,9.9-4.2v19.8h5.7v-89h-5.7v27h-27.4v4.9h27.4v32
			C148.5,86.4,138.9,90.1,129.3,93.4z"/>
	</g>
	<g>
		<path class="st1" d="M197.4,104.8h7.6c9.1,0.2,14.1-3.7,14.8-11.8c0.5-3.8,1-7.9,1.5-12.2c-2.3-0.8-3.9-1.4-4.9-1.9
			c-0.3,2.3-0.6,5.3-1.1,9.1c-0.3,1.5-0.4,2.7-0.4,3.4c-0.8,5.8-4.2,8.5-10.3,8h-6.1c-5.3,0.2-7.9-2.3-7.6-7.6V57.3
			c9.6-5.1,19.3-10.3,28.9-15.6l-3.4-4.6c-6.1,4.1-14.6,8.9-25.5,14.5V18.5h-5.7v74.2C184.9,101,189,105.1,197.4,104.8z"/>
	</g>
	<g>
		<polygon class="st1" points="322.8,31.8 280.2,31.8 280.2,17.3 274.9,17.3 274.9,31.8 232.7,31.8 232.7,36.7 322.8,36.7 		"/>
	</g>
	<g>
		<path class="st1" d="M314.8,51.9h-34.6V41.7h-5.3v10.3h-34.2v46.8h5.3V57.3h28.9v51.3h5.3V57.3h29.3V85c0.2,5.3-2.3,7.9-7.6,7.6
			c-0.8,0-2.2,0-4.2,0c-3-0.2-5.3-0.4-6.8-0.4c0.5,2,0.9,3.7,1.1,4.9c5.6,0,9.4,0,11.4,0c7.9,0,11.7-3.7,11.4-11V51.9z"/>
	</g>
	<g>
		<path class="st1" d="M375.2,52.7c1.3,1,2,1.7,2.3,1.9c0.5-0.8,1.1-1.8,1.9-3c1-1.3,1.6-2.2,1.9-2.7c2.5,15.2,7,27.1,13.3,35.8
			c-6.3,7.1-15.5,13.3-27.4,18.6c1.8,1.8,3,3.4,3.8,4.9c11.9-6.3,20.8-12.8,26.6-19.4c4.6,5.6,12.8,11.8,24.7,18.6
			c0.2-0.3,0.6-0.8,1.1-1.5c1-1.5,1.9-2.7,2.7-3.4C414.8,97,406.4,91.1,401.1,85c7.9-10.7,12.9-25.7,15.2-45.3h9.1v-4.6h-36.5
			c2.5-5.3,4.9-10.7,7.2-16l-5.3-1.5c-3.8,11.7-9.8,22.8-17.9,33.5C373.4,51.4,374.2,51.9,375.2,52.7z M386.3,39.8H411
			c-1.8,18-6.2,31.6-13.3,40.7c-5.8-8.1-10-20.8-12.6-38C385.6,41.7,386,40.8,386.3,39.8z"/>
	</g>
	<g>
		<path class="st1" d="M341,48.5V93c-2.8,0.3-5.3,0.6-7.6,1.1l0.8,4.6c9.6-1.3,22.1-3.4,37.3-6.5c3.5-0.8,6-1.3,7.2-1.5
			c0-1.8,0-3.4,0-4.9c-5.3,1.3-10.7,2.3-16,3v-27h14.1v-4.6h-14.1V31h15.6v-4.9H336V31h21.7v59c-4.1,0.8-8,1.5-11.8,2.3V48.5H341z"
			/>
	</g>
	<g>
		<path class="st1" d="M448.6,85.8c1.3-6.3,1.9-16.5,1.9-30.4V34.4h76.8v-4.6h-36.1V17.3h-4.9v12.6h-41.1v27.4
			c0,12.7-0.6,21.9-1.9,27.8c-1,5.8-3.4,11.9-7.2,18.3c1.3,1.3,2.5,2.5,3.8,3.8C444.1,99.7,447,92.6,448.6,85.8z"/>
	</g>
	<g>
		<path class="st1" d="M470.2,107.9V54.6c2.5-4.6,4.9-9.5,7.2-14.8l-4.9-2.3c-4.8,13.2-11.9,24.7-21.3,34.6l3.4,4.2
			c3.8-4.3,7.2-8.7,10.3-13.3v44.9H470.2z"/>
	</g>
	<g>
		<path class="st1" d="M513.2,94.9V59.6h13.3v-4.9h-13.3V39h-4.9v15.6h-31.6v4.9h31.6v34.6c0.2,5.1-2.2,7.5-7.2,7.2c-3.3,0-7,0-11,0
			c0.8,1.5,1.1,3.3,1.1,5.3c3.3,0,6.6,0,9.9,0C509.4,106.7,513.5,102.8,513.2,94.9z"/>
	</g>
	<g>
		<path class="st1" d="M497.2,83.9c-1.8-3.3-5.5-9.1-11-17.5l-4.2,2.7c3,4.6,6.6,10.4,10.7,17.5L497.2,83.9z"/>
	</g>
</g>
<g>
	<path class="st1" d="M538.2,101.9V80.1h0.5l16.5,16.8V80.1h2.5v21.9h-0.6l-16.4-16.6v16.6H538.2z"/>
	<path class="st1" d="M578.8,96.6l2,0.9c-0.7,1.1-1.4,2-2.3,2.7c-0.9,0.7-1.8,1.2-2.9,1.6c-1.1,0.4-2.3,0.5-3.6,0.5
		c-3,0-5.3-0.9-7-2.6c-1.7-1.7-2.5-3.7-2.5-5.9c0-2.1,0.7-3.9,2.1-5.5c1.8-2,4.2-3.1,7.3-3.1c3.1,0,5.6,1,7.5,3.1
		c1.3,1.5,2,3.3,2,5.5h-16.5c0,1.9,0.7,3.4,2,4.6c1.3,1.2,2.9,1.8,4.9,1.8c0.9,0,1.8-0.1,2.7-0.4c0.9-0.3,1.6-0.7,2.3-1.1
		C577.4,98.4,578.1,97.6,578.8,96.6z M578.8,92.2c-0.3-1.1-0.8-2-1.4-2.7c-0.6-0.7-1.4-1.2-2.4-1.6c-1-0.4-2-0.6-3.1-0.6
		c-1.8,0-3.4,0.5-4.7,1.5c-0.9,0.7-1.7,1.9-2.1,3.3H578.8z"/>
	<path class="st1" d="M583.3,85.8h2.4l5.6,11.8l5.9-11.8h0.4l5.9,11.8l5.7-11.8h2.5l-8,16.2h-0.4l-5.9-11.6l-5.9,11.6h-0.4
		L583.3,85.8z"/>
	<path class="st1" d="M622.1,82.2v-2.1h13.6v2.1h-5.5v19.7h-2.5V82.2H622.1z"/>
	<path class="st1" d="M657.2,85.8v16.2h-2.3v-2.8c-1,1.1-2.1,1.9-3.3,2.4c-1.2,0.5-2.6,0.8-4,0.8c-2.6,0-4.8-0.8-6.7-2.5
		c-1.8-1.7-2.8-3.7-2.8-6.1c0-2.3,0.9-4.3,2.8-6c1.9-1.7,4.1-2.5,6.7-2.5c1.5,0,2.9,0.3,4.1,0.8c1.2,0.6,2.3,1.4,3.2,2.5v-3H657.2z
		 M647.8,87.3c-1.3,0-2.5,0.3-3.6,0.9c-1.1,0.6-2,1.4-2.7,2.4c-0.7,1-1,2.1-1,3.3c0,1.1,0.3,2.2,1,3.3c0.7,1,1.6,1.8,2.7,2.4
		c1.1,0.6,2.3,0.9,3.6,0.9c1.3,0,2.5-0.3,3.7-0.9c1.2-0.6,2-1.4,2.7-2.3c0.6-1,0.9-2.1,0.9-3.3c0-1.9-0.7-3.4-2.1-4.7
		C651.5,88,649.8,87.3,647.8,87.3z"/>
	<path class="st1" d="M663.4,79.1c0.5,0,1,0.2,1.4,0.5c0.4,0.3,0.6,0.7,0.6,1.2c0,0.5-0.2,0.9-0.6,1.2c-0.4,0.3-0.8,0.5-1.4,0.5
		c-0.5,0-1-0.2-1.4-0.5c-0.4-0.3-0.6-0.7-0.6-1.2c0-0.5,0.2-0.9,0.6-1.2C662.4,79.3,662.8,79.1,663.4,79.1z M662.2,85.8h2.4v16.2
		h-2.4V85.8z"/>
	<path class="st1" d="M669.5,85.8h2.4v3c0.9-1.1,2-2,3.2-2.5c1.2-0.6,2.6-0.8,4.1-0.8c2.6,0,4.8,0.8,6.7,2.5c1.9,1.7,2.8,3.6,2.8,6
		c0,2.4-0.9,4.4-2.8,6.1c-1.8,1.7-4.1,2.5-6.7,2.5c-1.5,0-2.8-0.3-4-0.8c-1.2-0.5-2.3-1.3-3.3-2.4v8.7h-2.4V85.8z M679,87.3
		c-2,0-3.8,0.6-5.2,1.9c-1.4,1.3-2.1,2.8-2.1,4.7c0,1.2,0.3,2.3,0.9,3.3c0.6,1,1.5,1.8,2.7,2.3c1.2,0.6,2.4,0.9,3.7,0.9
		c1.3,0,2.5-0.3,3.6-0.9c1.1-0.6,2-1.4,2.7-2.4c0.7-1,1-2.1,1-3.3c0-1.1-0.3-2.2-1-3.3c-0.7-1-1.5-1.8-2.7-2.4
		C681.5,87.6,680.3,87.3,679,87.3z"/>
	<path class="st1" d="M708.5,96.6l2,0.9c-0.7,1.1-1.4,2-2.3,2.7c-0.9,0.7-1.8,1.2-2.9,1.6c-1.1,0.4-2.3,0.5-3.6,0.5
		c-3,0-5.3-0.9-7-2.6c-1.7-1.7-2.5-3.7-2.5-5.9c0-2.1,0.7-3.9,2.1-5.5c1.8-2,4.2-3.1,7.3-3.1c3.1,0,5.6,1,7.5,3.1
		c1.3,1.5,2,3.3,2,5.5h-16.5c0,1.9,0.7,3.4,2,4.6c1.3,1.2,2.9,1.8,4.9,1.8c0.9,0,1.8-0.1,2.7-0.4c0.9-0.3,1.6-0.7,2.3-1.1
		C707.1,98.4,707.8,97.6,708.5,96.6z M708.5,92.2c-0.3-1.1-0.8-2-1.4-2.7c-0.6-0.7-1.4-1.2-2.4-1.6c-1-0.4-2-0.6-3.1-0.6
		c-1.8,0-3.4,0.5-4.7,1.5c-0.9,0.7-1.7,1.9-2.1,3.3H708.5z"/>
	<path class="st1" d="M716.4,79.1c0.5,0,1,0.2,1.4,0.5c0.4,0.3,0.6,0.7,0.6,1.2c0,0.5-0.2,0.9-0.6,1.2c-0.4,0.3-0.8,0.5-1.4,0.5
		c-0.5,0-1-0.2-1.4-0.5c-0.4-0.3-0.6-0.7-0.6-1.2c0-0.5,0.2-0.9,0.6-1.2C715.4,79.3,715.8,79.1,716.4,79.1z M715.2,85.8h2.4v16.2
		h-2.4V85.8z"/>
	<path class="st1" d="M755.6,84.1l-2,1.3c-1.1-1.2-2.4-2.2-3.9-2.8c-1.5-0.6-3.2-1-5-1c-2,0-3.8,0.4-5.5,1.3c-1.7,0.8-3,2-3.9,3.4
		c-0.9,1.4-1.4,3-1.4,4.8c0,2.7,1,4.9,3.1,6.7c2.1,1.8,4.7,2.7,7.9,2.7c3.5,0,6.4-1.2,8.7-3.6l2,1.3c-1.2,1.4-2.8,2.5-4.6,3.2
		c-1.9,0.8-3.9,1.1-6.2,1.1c-4.3,0-7.8-1.3-10.3-3.8c-2.1-2.2-3.2-4.8-3.2-7.8c0-3.2,1.3-5.9,3.8-8.1c2.6-2.2,5.7-3.3,9.6-3.3
		c2.3,0,4.4,0.4,6.3,1.2C752.9,81.5,754.4,82.7,755.6,84.1z"/>
	<path class="st1" d="M761,79.1c0.5,0,1,0.2,1.4,0.5c0.4,0.3,0.6,0.7,0.6,1.2c0,0.5-0.2,0.9-0.6,1.2c-0.4,0.3-0.8,0.5-1.4,0.5
		c-0.5,0-1-0.2-1.4-0.5c-0.4-0.3-0.6-0.7-0.6-1.2c0-0.5,0.2-0.9,0.6-1.2C760,79.3,760.5,79.1,761,79.1z M759.8,85.8h2.4v16.2h-2.4
		V85.8z"/>
	<path class="st1" d="M769.2,79.7h2.4v6h3.8v1.8h-3.8v14.4h-2.4V87.6h-3.2v-1.8h3.2V79.7z"/>
	<path class="st1" d="M776.9,85.8h2.5l6.3,12.5l6.1-12.5h2.5l-11,22.1h-2.5l3.5-7.1L776.9,85.8z"/>
	<path class="st1" d="M831.3,83.7l-1.9,1.6c-1.4-1.2-2.9-2.1-4.6-2.7c-1.7-0.6-3.3-0.9-4.8-0.9c-1.9,0-3.8,0.4-5.6,1.3
		c-1.8,0.8-3.1,2-4.1,3.4c-1,1.4-1.5,3-1.5,4.6c0,1.6,0.5,3.2,1.5,4.7c1,1.5,2.4,2.6,4.2,3.5c1.8,0.8,3.7,1.3,5.8,1.3
		c2.6,0,4.7-0.6,6.5-1.9c1.8-1.3,2.8-2.9,3.1-4.9h-7.9v-2.1h10.7c0,3.4-1.2,6.1-3.4,8.1c-2.3,2-5.3,3-9.1,3c-4.6,0-8.2-1.4-10.9-4.1
		c-2.1-2.1-3.1-4.6-3.1-7.4c0-2.1,0.6-4,1.8-5.8c1.2-1.8,2.8-3.2,4.9-4.2c2.1-1,4.4-1.5,7-1.5c2.1,0,4.1,0.3,5.9,1
		C827.8,81.2,829.6,82.3,831.3,83.7z"/>
	<path class="st1" d="M845.8,85.3c2.8,0,5.2,0.9,7,2.7c1.7,1.6,2.5,3.6,2.5,5.8c0,2.3-0.9,4.2-2.7,5.9c-1.8,1.7-4.1,2.5-6.9,2.5
		c-2.8,0-5.1-0.8-6.9-2.5s-2.7-3.7-2.7-5.9c0-2.2,0.8-4.2,2.5-5.8C840.6,86.2,843,85.3,845.8,85.3z M845.8,87.4
		c-2,0-3.7,0.6-5.1,1.9c-1.4,1.3-2.1,2.8-2.1,4.6c0,1.2,0.3,2.3,1,3.3c0.6,1,1.5,1.8,2.6,2.3c1.1,0.6,2.3,0.8,3.6,0.8
		s2.5-0.3,3.6-0.8c1.1-0.6,2-1.3,2.6-2.3c0.6-1,1-2.1,1-3.3c0-1.8-0.7-3.4-2.1-4.6C849.5,88,847.8,87.4,845.8,87.4z"/>
	<path class="st1" d="M858.1,85.8h2.5l6.2,11.8l6.1-11.8h2.5l-8.4,16.2h-0.4L858.1,85.8z"/>
	<path class="st1" d="M894.5,96.6l2,0.9c-0.7,1.1-1.4,2-2.3,2.7c-0.9,0.7-1.8,1.2-2.9,1.6c-1.1,0.4-2.3,0.5-3.6,0.5
		c-3,0-5.3-0.9-7-2.6c-1.7-1.7-2.5-3.7-2.5-5.9c0-2.1,0.7-3.9,2.1-5.5c1.8-2,4.2-3.1,7.3-3.1c3.1,0,5.6,1,7.5,3.1
		c1.3,1.5,2,3.3,2,5.5h-16.5c0,1.9,0.7,3.4,2,4.6c1.3,1.2,2.9,1.8,4.9,1.8c0.9,0,1.8-0.1,2.7-0.4s1.6-0.7,2.3-1.1
		S893.7,97.6,894.5,96.6z M894.5,92.2c-0.3-1.1-0.8-2-1.4-2.7c-0.6-0.7-1.4-1.2-2.4-1.6c-1-0.4-2-0.6-3.1-0.6
		c-1.8,0-3.4,0.5-4.7,1.5c-0.9,0.7-1.7,1.9-2.1,3.3H894.5z"/>
	<path class="st1" d="M900.6,85.8h2.4v2.4c0.7-0.9,1.5-1.6,2.3-2.1c0.8-0.5,1.6-0.7,2.5-0.7c0.7,0,1.4,0.2,2.1,0.6l-1.2,1.8
		c-0.5-0.2-0.9-0.3-1.3-0.3c-0.8,0-1.5,0.3-2.3,0.9c-0.7,0.6-1.3,1.5-1.7,2.7c-0.3,0.9-0.4,2.8-0.4,5.6v5.5h-2.4V85.8z"/>
	<path class="st1" d="M911.9,85.8h2.4v2.9c0.9-1.1,2-1.9,3.1-2.5c1.2-0.6,2.4-0.8,3.8-0.8c1.4,0,2.6,0.3,3.7,0.9
		c1.1,0.6,1.8,1.4,2.4,2.5c0.5,1,0.8,2.7,0.8,4.9v8.3h-2.4v-7.7c0-1.9-0.1-3.1-0.3-3.7c-0.3-1.1-0.8-1.9-1.6-2.4
		c-0.8-0.5-1.8-0.8-3-0.8c-1.4,0-2.7,0.4-3.8,1.2c-1.1,0.8-1.9,1.9-2.2,3.1c-0.2,0.8-0.3,2.3-0.3,4.4v5.9h-2.4V85.8z"/>
	<path class="st1" d="M933,85.8h2.4v2.8c0.8-1,1.7-1.8,2.5-2.3c1.2-0.6,2.5-1,3.8-1c0.9,0,1.7,0.2,2.5,0.5c0.8,0.3,1.5,0.7,2,1.2
		c0.5,0.5,0.9,1.2,1.3,2.2c0.8-1.3,1.8-2.2,2.9-2.9c1.2-0.7,2.5-1,3.8-1c1.3,0,2.4,0.3,3.4,0.8c1,0.6,1.7,1.4,2.2,2.4
		s0.7,2.5,0.7,4.6v8.8H958v-8.8c0-1.7-0.1-2.9-0.4-3.6s-0.8-1.2-1.4-1.6c-0.7-0.4-1.5-0.6-2.4-0.6c-1.1,0-2.2,0.3-3.1,0.9
		c-0.9,0.6-1.6,1.4-2.1,2.4c-0.4,1-0.7,2.6-0.7,5v6.3h-2.4v-8.3c0-2-0.1-3.3-0.4-4c-0.3-0.7-0.8-1.3-1.4-1.7
		c-0.7-0.4-1.5-0.6-2.5-0.6c-1.1,0-2.1,0.3-3.1,0.9c-1,0.6-1.7,1.4-2.1,2.3c-0.5,1-0.7,2.5-0.7,4.5v6.9H933V85.8z"/>
	<path class="st1" d="M980.9,96.6l2,0.9c-0.7,1.1-1.4,2-2.3,2.7c-0.9,0.7-1.8,1.2-2.9,1.6c-1.1,0.4-2.3,0.5-3.6,0.5
		c-3,0-5.3-0.9-7-2.6c-1.7-1.7-2.5-3.7-2.5-5.9c0-2.1,0.7-3.9,2.1-5.5c1.8-2,4.2-3.1,7.3-3.1c3.1,0,5.6,1,7.5,3.1
		c1.3,1.5,2,3.3,2,5.5H967c0,1.9,0.7,3.4,2,4.6c1.3,1.2,2.9,1.8,4.9,1.8c0.9,0,1.8-0.1,2.7-0.4s1.6-0.7,2.3-1.1
		S980.2,97.6,980.9,96.6z M980.9,92.2c-0.3-1.1-0.8-2-1.4-2.7c-0.6-0.7-1.4-1.2-2.4-1.6c-1-0.4-2-0.6-3.1-0.6
		c-1.8,0-3.4,0.5-4.7,1.5c-0.9,0.7-1.7,1.9-2.1,3.3H980.9z"/>
	<path class="st1" d="M987.9,85.8h2.4v2.9c0.9-1.1,2-1.9,3.1-2.5c1.1-0.6,2.4-0.8,3.8-0.8c1.4,0,2.6,0.3,3.7,0.9s1.8,1.4,2.4,2.5
		c0.5,1,0.8,2.7,0.8,4.9v8.3h-2.4v-7.7c0-1.9-0.1-3.1-0.3-3.7c-0.3-1.1-0.8-1.9-1.6-2.4c-0.8-0.5-1.8-0.8-3-0.8
		c-1.4,0-2.7,0.4-3.8,1.2c-1.1,0.8-1.9,1.9-2.2,3.1c-0.2,0.8-0.3,2.3-0.3,4.4v5.9h-2.4V85.8z"/>
	<path class="st1" d="M1011.1,79.7h2.4v6h3.8v1.8h-3.8v14.4h-2.4V87.6h-3.2v-1.8h3.2V79.7z"/>
</g>
<g>
	<rect x="26.1" y="309" class="st2" width="996.8" height="49.6"/>
</g>
<g>
	<path class="st0" d="M43.9,314H66v3.8H47.7v12.1h18.1v3.8H47.7v15.2h18.1v3.8h-22V314z"/>
	<path class="st0" d="M99.8,330l-2.9,1.8c-2.5-3.3-6-5-10.3-5c-3.5,0-6.4,1.1-8.7,3.4c-2.3,2.2-3.4,5-3.4,8.2c0,2.1,0.5,4,1.6,5.9
		c1.1,1.8,2.5,3.3,4.4,4.3c1.8,1,3.9,1.5,6.2,1.5c4.2,0,7.6-1.7,10.3-5l2.9,1.9c-1.4,2.1-3.2,3.7-5.5,4.8c-2.3,1.1-4.9,1.7-7.9,1.7
		c-4.5,0-8.3-1.4-11.2-4.3c-3-2.9-4.5-6.4-4.5-10.5c0-2.8,0.7-5.3,2.1-7.7c1.4-2.4,3.3-4.2,5.7-5.6c2.4-1.3,5.2-2,8.2-2
		c1.9,0,3.7,0.3,5.5,0.9c1.8,0.6,3.3,1.3,4.5,2.3C97.9,327.4,99,328.5,99.8,330z"/>
	<path class="st0" d="M120.4,323.3c4.4,0,8,1.6,10.9,4.8c2.6,2.9,3.9,6.3,3.9,10.3c0,4-1.4,7.5-4.2,10.5c-2.8,3-6.4,4.5-10.7,4.5
		c-4.4,0-8-1.5-10.7-4.5c-2.8-3-4.2-6.5-4.2-10.5c0-4,1.3-7.4,3.9-10.3C112.3,324.9,116,323.3,120.4,323.3z M120.4,326.9
		c-3.1,0-5.7,1.1-7.9,3.4c-2.2,2.3-3.3,5-3.3,8.2c0,2.1,0.5,4,1.5,5.8c1,1.8,2.4,3.2,4.1,4.1c1.7,1,3.6,1.5,5.6,1.5
		c2,0,3.9-0.5,5.6-1.5c1.7-1,3.1-2.4,4.1-4.1c1-1.8,1.5-3.7,1.5-5.8c0-3.2-1.1-5.9-3.3-8.2C126.1,328,123.4,326.9,120.4,326.9z"/>
	<path class="st0" d="M142.1,324h3.7v5.1c1.5-2,3.1-3.4,4.9-4.4c1.8-1,3.7-1.5,5.8-1.5c2.1,0,4,0.5,5.7,1.6c1.7,1.1,2.9,2.5,3.7,4.4
		c0.8,1.8,1.2,4.7,1.2,8.6v14.7h-3.7V339c0-3.3-0.1-5.5-0.4-6.6c-0.4-1.9-1.2-3.3-2.5-4.3c-1.2-1-2.8-1.4-4.7-1.4
		c-2.2,0-4.2,0.7-6,2.2c-1.8,1.5-2.9,3.3-3.5,5.5c-0.4,1.4-0.5,4-0.5,7.8v10.5h-3.7V324z"/>
	<path class="st0" d="M188.4,323.3c4.4,0,8,1.6,10.9,4.8c2.6,2.9,3.9,6.3,3.9,10.3c0,4-1.4,7.5-4.2,10.5c-2.8,3-6.4,4.5-10.7,4.5
		c-4.4,0-8-1.5-10.7-4.5c-2.8-3-4.2-6.5-4.2-10.5c0-4,1.3-7.4,3.9-10.3C180.4,324.9,184,323.3,188.4,323.3z M188.4,326.9
		c-3.1,0-5.7,1.1-7.9,3.4c-2.2,2.3-3.3,5-3.3,8.2c0,2.1,0.5,4,1.5,5.8c1,1.8,2.4,3.2,4.1,4.1c1.7,1,3.6,1.5,5.6,1.5
		c2,0,3.9-0.5,5.6-1.5c1.7-1,3.1-2.4,4.1-4.1c1-1.8,1.5-3.7,1.5-5.8c0-3.2-1.1-5.9-3.3-8.2C194.1,328,191.5,326.9,188.4,326.9z"/>
	<path class="st0" d="M210.1,324h3.7v4.9c1.3-1.8,2.6-3.2,3.9-4c1.9-1.1,3.8-1.7,5.9-1.7c1.4,0,2.7,0.3,3.9,0.8
		c1.2,0.5,2.3,1.3,3,2.2c0.8,0.9,1.5,2.2,2.1,3.9c1.2-2.2,2.8-3.9,4.6-5.1c1.8-1.2,3.8-1.7,5.9-1.7c2,0,3.7,0.5,5.2,1.5
		c1.5,1,2.6,2.4,3.4,4.2c0.7,1.8,1.1,4.5,1.1,8v15.6h-3.8V337c0-3.1-0.2-5.2-0.7-6.3c-0.4-1.1-1.2-2.1-2.2-2.8
		c-1.1-0.7-2.3-1.1-3.8-1.1c-1.8,0-3.4,0.5-4.9,1.6c-1.5,1.1-2.6,2.5-3.2,4.2c-0.7,1.8-1,4.7-1,8.8v11.2h-3.7V338
		c0-3.4-0.2-5.8-0.6-7c-0.4-1.2-1.2-2.2-2.2-3c-1.1-0.7-2.3-1.1-3.8-1.1c-1.7,0-3.3,0.5-4.8,1.5c-1.5,1-2.6,2.4-3.3,4.1
		c-0.7,1.7-1.1,4.4-1.1,8v12.1h-3.7V324z"/>
	<path class="st0" d="M261.9,312.3c0.8,0,1.6,0.3,2.1,0.9c0.6,0.6,0.9,1.3,0.9,2.2c0,0.8-0.3,1.5-0.9,2.1c-0.6,0.6-1.3,0.9-2.1,0.9
		c-0.8,0-1.5-0.3-2.1-0.9c-0.6-0.6-0.9-1.3-0.9-2.1c0-0.8,0.3-1.6,0.9-2.2C260.3,312.6,261,312.3,261.9,312.3z M260,324h3.7v28.6
		H260V324z"/>
	<path class="st0" d="M299.1,330l-2.9,1.8c-2.5-3.3-6-5-10.3-5c-3.5,0-6.4,1.1-8.7,3.4c-2.3,2.2-3.4,5-3.4,8.2c0,2.1,0.5,4,1.6,5.9
		c1.1,1.8,2.5,3.3,4.4,4.3c1.8,1,3.9,1.5,6.2,1.5c4.2,0,7.6-1.7,10.3-5l2.9,1.9c-1.4,2.1-3.2,3.7-5.5,4.8c-2.3,1.1-4.9,1.7-7.9,1.7
		c-4.5,0-8.3-1.4-11.2-4.3c-3-2.9-4.5-6.4-4.5-10.5c0-2.8,0.7-5.3,2.1-7.7c1.4-2.4,3.3-4.2,5.7-5.6c2.4-1.3,5.2-2,8.2-2
		c1.9,0,3.7,0.3,5.5,0.9c1.8,0.6,3.3,1.3,4.5,2.3C297.2,327.4,298.2,328.5,299.1,330z"/>
	<path class="st0" d="M321.6,352.6V314h8c5.8,0,10,0.5,12.6,1.4c3.7,1.3,6.7,3.6,8.8,6.8s3.2,7.1,3.2,11.6c0,3.9-0.8,7.3-2.5,10.2
		c-1.7,2.9-3.8,5.1-6.5,6.5c-2.7,1.4-6.4,2.1-11.2,2.1H321.6z M325.3,349h4.5c5.3,0,9-0.3,11.1-1c2.9-0.9,5.2-2.6,6.9-5.1
		c1.7-2.5,2.5-5.5,2.5-9c0-3.7-0.9-6.9-2.7-9.6c-1.8-2.6-4.3-4.5-7.5-5.4c-2.4-0.7-6.4-1.1-11.9-1.1h-2.7V349z"/>
	<path class="st0" d="M385.1,343.1l3.1,1.6c-1,2-2.2,3.6-3.5,4.8c-1.3,1.2-2.8,2.2-4.5,2.8c-1.7,0.6-3.6,1-5.7,1
		c-4.7,0-8.3-1.5-10.9-4.6c-2.6-3.1-3.9-6.5-3.9-10.4c0-3.6,1.1-6.9,3.3-9.7c2.8-3.6,6.6-5.4,11.3-5.4c4.9,0,8.8,1.8,11.7,5.5
		c2.1,2.6,3.1,5.9,3.2,9.8h-25.7c0.1,3.3,1.1,6,3.2,8.2c2.1,2.1,4.6,3.2,7.6,3.2c1.5,0,2.9-0.3,4.2-0.8c1.4-0.5,2.5-1.2,3.5-2
		C383,346.4,384,345,385.1,343.1z M385.1,335.4c-0.5-2-1.2-3.5-2.1-4.7c-0.9-1.2-2.2-2.1-3.7-2.8c-1.5-0.7-3.2-1.1-4.9-1.1
		c-2.8,0-5.2,0.9-7.2,2.7c-1.5,1.3-2.6,3.3-3.3,5.9H385.1z"/>
	<path class="st0" d="M393.3,324h3.9l9.6,20.8l9.5-20.8h3.9l-13.1,28.6h-0.7L393.3,324z"/>
	<path class="st0" d="M449.9,343.1l3.1,1.6c-1,2-2.2,3.6-3.5,4.8c-1.3,1.2-2.8,2.2-4.5,2.8c-1.7,0.6-3.6,1-5.7,1
		c-4.7,0-8.3-1.5-10.9-4.6c-2.6-3.1-3.9-6.5-3.9-10.4c0-3.6,1.1-6.9,3.3-9.7c2.8-3.6,6.6-5.4,11.3-5.4c4.9,0,8.8,1.8,11.7,5.5
		c2.1,2.6,3.1,5.9,3.2,9.8h-25.7c0.1,3.3,1.1,6,3.2,8.2c2.1,2.1,4.6,3.2,7.6,3.2c1.5,0,2.9-0.3,4.2-0.8c1.4-0.5,2.5-1.2,3.5-2
		C447.7,346.4,448.8,345,449.9,343.1z M449.9,335.4c-0.5-2-1.2-3.5-2.1-4.7c-0.9-1.2-2.2-2.1-3.7-2.8c-1.5-0.7-3.2-1.1-4.9-1.1
		c-2.8,0-5.2,0.9-7.2,2.7c-1.5,1.3-2.6,3.3-3.3,5.9H449.9z"/>
	<path class="st0" d="M460.2,313h3.7v39.6h-3.7V313z"/>
	<path class="st0" d="M485.1,323.3c4.4,0,8.1,1.6,10.9,4.8c2.6,2.9,3.9,6.3,3.9,10.3c0,4-1.4,7.5-4.2,10.5c-2.8,3-6.4,4.5-10.7,4.5
		c-4.4,0-8-1.5-10.7-4.5c-2.8-3-4.2-6.5-4.2-10.5c0-4,1.3-7.4,3.9-10.3C477,324.9,480.7,323.3,485.1,323.3z M485.1,326.9
		c-3.1,0-5.7,1.1-7.9,3.4c-2.2,2.3-3.3,5-3.3,8.2c0,2.1,0.5,4,1.5,5.8c1,1.8,2.4,3.2,4.1,4.1c1.7,1,3.6,1.5,5.6,1.5
		c2,0,3.9-0.5,5.6-1.5c1.7-1,3.1-2.4,4.1-4.1c1-1.8,1.5-3.7,1.5-5.8c0-3.2-1.1-5.9-3.3-8.2C490.7,328,488.1,326.9,485.1,326.9z"/>
	<path class="st0" d="M506.8,324h3.7v5.3c1.5-2,3.1-3.5,5-4.5c1.9-1,4-1.5,6.3-1.5c4.1,0,7.5,1.5,10.4,4.4c2.9,2.9,4.3,6.4,4.3,10.6
		c0,4.2-1.4,7.8-4.3,10.7c-2.9,2.9-6.3,4.4-10.3,4.4c-2.3,0-4.4-0.5-6.3-1.4c-1.9-0.9-3.6-2.4-5.2-4.2v15.4h-3.7V324z M521.5,326.9
		c-3.2,0-5.9,1.1-8,3.3c-2.2,2.2-3.3,5-3.3,8.3c0,2.2,0.5,4.1,1.5,5.9c1,1.7,2.4,3.1,4.2,4.1c1.8,1,3.7,1.5,5.7,1.5
		c2,0,3.8-0.5,5.6-1.5c1.7-1,3.1-2.5,4.2-4.3c1-1.8,1.5-3.8,1.5-5.8c0-2-0.5-4-1.5-5.8c-1-1.8-2.4-3.2-4.1-4.2
		C525.5,327.4,523.6,326.9,521.5,326.9z"/>
	<path class="st0" d="M543.4,324h3.7v4.9c1.3-1.8,2.6-3.2,3.9-4c1.9-1.1,3.8-1.7,5.9-1.7c1.4,0,2.7,0.3,3.9,0.8
		c1.2,0.5,2.3,1.3,3,2.2s1.5,2.2,2.1,3.9c1.2-2.2,2.8-3.9,4.6-5.1c1.8-1.2,3.8-1.7,5.9-1.7c2,0,3.7,0.5,5.2,1.5
		c1.5,1,2.6,2.4,3.4,4.2c0.7,1.8,1.1,4.5,1.1,8v15.6h-3.8V337c0-3.1-0.2-5.2-0.7-6.3c-0.4-1.1-1.2-2.1-2.2-2.8
		c-1.1-0.7-2.3-1.1-3.8-1.1c-1.8,0-3.4,0.5-4.9,1.6c-1.5,1.1-2.6,2.5-3.2,4.2c-0.7,1.8-1,4.7-1,8.8v11.2h-3.7V338
		c0-3.4-0.2-5.8-0.6-7c-0.4-1.2-1.2-2.2-2.2-3c-1.1-0.7-2.3-1.1-3.8-1.1c-1.7,0-3.3,0.5-4.8,1.5c-1.5,1-2.6,2.4-3.3,4.1
		c-0.7,1.7-1.1,4.4-1.1,8v12.1h-3.7V324z"/>
	<path class="st0" d="M618,343.1l3.1,1.6c-1,2-2.2,3.6-3.5,4.8c-1.3,1.2-2.8,2.2-4.5,2.8c-1.7,0.6-3.6,1-5.7,1
		c-4.7,0-8.3-1.5-10.9-4.6s-3.9-6.5-3.9-10.4c0-3.6,1.1-6.9,3.3-9.7c2.8-3.6,6.6-5.4,11.3-5.4c4.9,0,8.8,1.8,11.7,5.5
		c2.1,2.6,3.1,5.9,3.2,9.8h-25.7c0.1,3.3,1.1,6,3.2,8.2c2.1,2.1,4.6,3.2,7.6,3.2c1.5,0,2.9-0.3,4.2-0.8c1.4-0.5,2.5-1.2,3.5-2
		C615.8,346.4,616.9,345,618,343.1z M618,335.4c-0.5-2-1.2-3.5-2.1-4.7c-0.9-1.2-2.2-2.1-3.7-2.8c-1.5-0.7-3.2-1.1-4.9-1.1
		c-2.8,0-5.2,0.9-7.2,2.7c-1.5,1.3-2.6,3.3-3.3,5.9H618z"/>
	<path class="st0" d="M628.9,324h3.7v5.1c1.5-2,3.1-3.4,4.9-4.4c1.8-1,3.7-1.5,5.8-1.5c2.1,0,4,0.5,5.7,1.6c1.7,1.1,2.9,2.5,3.7,4.4
		c0.8,1.8,1.2,4.7,1.2,8.6v14.7h-3.7V339c0-3.3-0.1-5.5-0.4-6.6c-0.4-1.9-1.2-3.3-2.5-4.3c-1.2-1-2.8-1.4-4.7-1.4
		c-2.2,0-4.2,0.7-6,2.2c-1.8,1.5-2.9,3.3-3.5,5.5c-0.4,1.4-0.5,4-0.5,7.8v10.5h-3.7V324z"/>
	<path class="st0" d="M664.9,313.4h3.7V324h5.8v3.2h-5.8v25.4h-3.7v-25.4h-5V324h5V313.4z"/>
	<path class="st0" d="M695.4,352.6V314h8c5.8,0,10,0.5,12.6,1.4c3.7,1.3,6.7,3.6,8.8,6.8s3.2,7.1,3.2,11.6c0,3.9-0.8,7.3-2.5,10.2
		c-1.7,2.9-3.8,5.1-6.5,6.5s-6.4,2.1-11.2,2.1H695.4z M699.1,349h4.5c5.3,0,9-0.3,11.1-1c2.9-0.9,5.2-2.6,6.9-5.1
		c1.7-2.5,2.5-5.5,2.5-9c0-3.7-0.9-6.9-2.7-9.6c-1.8-2.6-4.3-4.5-7.5-5.4c-2.4-0.7-6.4-1.1-11.9-1.1h-2.7V349z"/>
	<path class="st0" d="M758.9,343.1l3.1,1.6c-1,2-2.2,3.6-3.5,4.8c-1.3,1.2-2.8,2.2-4.5,2.8c-1.7,0.6-3.6,1-5.7,1
		c-4.7,0-8.3-1.5-10.9-4.6s-3.9-6.5-3.9-10.4c0-3.6,1.1-6.9,3.3-9.7c2.8-3.6,6.6-5.4,11.3-5.4c4.9,0,8.8,1.8,11.7,5.5
		c2.1,2.6,3.1,5.9,3.2,9.8h-25.7c0.1,3.3,1.1,6,3.2,8.2c2.1,2.1,4.6,3.2,7.6,3.2c1.5,0,2.9-0.3,4.2-0.8c1.4-0.5,2.5-1.2,3.5-2
		C756.7,346.4,757.8,345,758.9,343.1z M758.9,335.4c-0.5-2-1.2-3.5-2.1-4.7c-0.9-1.2-2.2-2.1-3.7-2.8c-1.5-0.7-3.2-1.1-4.9-1.1
		c-2.8,0-5.2,0.9-7.2,2.7c-1.5,1.3-2.6,3.3-3.3,5.9H758.9z"/>
	<path class="st0" d="M769.8,324h3.7v5.3c1.5-2,3.1-3.5,5-4.5c1.9-1,4-1.5,6.3-1.5c4.1,0,7.5,1.5,10.4,4.4c2.9,2.9,4.3,6.4,4.3,10.6
		c0,4.2-1.4,7.8-4.3,10.7c-2.9,2.9-6.3,4.4-10.3,4.4c-2.3,0-4.4-0.5-6.3-1.4c-1.9-0.9-3.6-2.4-5.2-4.2v15.4h-3.7V324z M784.5,326.9
		c-3.2,0-5.9,1.1-8,3.3s-3.3,5-3.3,8.3c0,2.2,0.5,4.1,1.5,5.9c1,1.7,2.4,3.1,4.2,4.1c1.8,1,3.7,1.5,5.7,1.5c2,0,3.8-0.5,5.6-1.5
		c1.7-1,3.1-2.5,4.2-4.3c1-1.8,1.5-3.8,1.5-5.8c0-2-0.5-4-1.5-5.8c-1-1.8-2.4-3.2-4.1-4.2C788.5,327.4,786.6,326.9,784.5,326.9z"/>
	<path class="st0" d="M834.9,324v28.6h-3.6v-4.9c-1.5,1.9-3.3,3.3-5.2,4.2c-1.9,0.9-4,1.4-6.3,1.4c-4,0-7.5-1.5-10.4-4.4
		c-2.9-2.9-4.3-6.5-4.3-10.7c0-4.1,1.4-7.6,4.3-10.6c2.9-2.9,6.4-4.4,10.4-4.4c2.3,0,4.5,0.5,6.4,1.5c1.9,1,3.6,2.5,5,4.5V324H834.9
		z M820.3,326.9c-2,0-3.9,0.5-5.7,1.5c-1.7,1-3.1,2.4-4.1,4.2c-1,1.8-1.5,3.7-1.5,5.8c0,2,0.5,3.9,1.5,5.8c1,1.8,2.4,3.3,4.2,4.3
		c1.7,1,3.6,1.5,5.6,1.5c2,0,3.9-0.5,5.7-1.5c1.8-1,3.2-2.4,4.2-4.1c1-1.7,1.5-3.7,1.5-5.9c0-3.3-1.1-6.1-3.3-8.3
		C826.1,328,823.4,326.9,820.3,326.9z"/>
	<path class="st0" d="M841.8,324h3.8v4.2c1.1-1.6,2.3-2.9,3.5-3.7c1.2-0.8,2.5-1.2,3.9-1.2c1,0,2.1,0.3,3.3,1l-1.9,3.1
		c-0.8-0.3-1.4-0.5-1.9-0.5c-1.2,0-2.4,0.5-3.5,1.5c-1.1,1-2,2.6-2.6,4.7c-0.5,1.6-0.7,4.9-0.7,9.9v9.7h-3.8V324z"/>
	<path class="st0" d="M862.6,313.4h3.7V324h5.8v3.2h-5.8v25.4h-3.7v-25.4h-5V324h5V313.4z"/>
	<path class="st0" d="M877.6,324h3.7v4.9c1.3-1.8,2.6-3.2,3.9-4c1.9-1.1,3.8-1.7,5.9-1.7c1.4,0,2.7,0.3,3.9,0.8
		c1.2,0.5,2.3,1.3,3,2.2s1.5,2.2,2.1,3.9c1.2-2.2,2.8-3.9,4.6-5.1c1.8-1.2,3.8-1.7,5.9-1.7c2,0,3.7,0.5,5.2,1.5
		c1.5,1,2.6,2.4,3.4,4.2c0.7,1.8,1.1,4.5,1.1,8v15.6h-3.8V337c0-3.1-0.2-5.2-0.7-6.3c-0.4-1.1-1.2-2.1-2.2-2.8
		c-1.1-0.7-2.3-1.1-3.8-1.1c-1.8,0-3.4,0.5-4.9,1.6c-1.5,1.1-2.6,2.5-3.2,4.2c-0.7,1.8-1,4.7-1,8.8v11.2h-3.7V338
		c0-3.4-0.2-5.8-0.6-7c-0.4-1.2-1.2-2.2-2.2-3c-1.1-0.7-2.3-1.1-3.8-1.1c-1.7,0-3.3,0.5-4.8,1.5c-1.5,1-2.6,2.4-3.3,4.1
		c-0.7,1.7-1.1,4.4-1.1,8v12.1h-3.7V324z"/>
	<path class="st0" d="M952.1,343.1l3.1,1.6c-1,2-2.2,3.6-3.5,4.8c-1.3,1.2-2.8,2.2-4.5,2.8c-1.7,0.6-3.6,1-5.7,1
		c-4.7,0-8.3-1.5-10.9-4.6c-2.6-3.1-3.9-6.5-3.9-10.4c0-3.6,1.1-6.9,3.3-9.7c2.8-3.6,6.6-5.4,11.3-5.4c4.9,0,8.8,1.8,11.7,5.5
		c2.1,2.6,3.1,5.9,3.2,9.8h-25.7c0.1,3.3,1.1,6,3.2,8.2c2.1,2.1,4.6,3.2,7.6,3.2c1.5,0,2.9-0.3,4.2-0.8c1.4-0.5,2.5-1.2,3.5-2
		C950,346.4,951,345,952.1,343.1z M952.1,335.4c-0.5-2-1.2-3.5-2.1-4.7c-0.9-1.2-2.2-2.1-3.7-2.8c-1.5-0.7-3.2-1.1-4.9-1.1
		c-2.8,0-5.2,0.9-7.2,2.7c-1.5,1.3-2.6,3.3-3.3,5.9H952.1z"/>
	<path class="st0" d="M963,324h3.7v5.1c1.5-2,3.1-3.4,4.9-4.4c1.8-1,3.7-1.5,5.8-1.5c2.1,0,4,0.5,5.7,1.6c1.7,1.1,2.9,2.5,3.7,4.4
		c0.8,1.8,1.2,4.7,1.2,8.6v14.7h-3.7V339c0-3.3-0.1-5.5-0.4-6.6c-0.4-1.9-1.2-3.3-2.5-4.3c-1.2-1-2.8-1.4-4.7-1.4
		c-2.2,0-4.2,0.7-6,2.2c-1.8,1.5-2.9,3.3-3.5,5.5c-0.4,1.4-0.5,4-0.5,7.8v10.5H963V324z"/>
	<path class="st0" d="M999,313.4h3.7V324h5.8v3.2h-5.8v25.4H999v-25.4h-5V324h5V313.4z"/>
</g>
</svg>
